<svg xmlns="http://www.w3.org/2000/svg" width="28" height="28" viewBox="0 0 28 28"><g transform="translate(-151 -421)"><rect width="28" height="28" transform="translate(151 421)" fill="#bbb" opacity="0"/><path d="M1860.26,1573.76l-1.547-1.568a.646.646,0,0,0-.46-.192h0a.647.647,0,0,0-.46.193l-9.018,9.154a.649.649,0,0,0-.142.218l-1,2.567a.646.646,0,0,0,.84.836l2.542-1.008a.65.65,0,0,0,.222-.147l9.026-9.145A.646.646,0,0,0,1860.26,1573.76Zm-9.851,9.048-1.035.411.414-1.06,8.465-8.593.639.647Zm6.591-.773v8.7a.893.893,0,0,1-.9.862h-12.241a.862.862,0,0,1-.862-.862v-16.408a.83.83,0,0,1,.862-.823h8.954a.862.862,0,1,1,0,1.723h-8.093v14.646h10.554v-7.841a.862.862,0,0,1,1.723,0Z" transform="translate(-1686.615 -1146.692)" fill="#e2bc79"/></g></svg>