<svg xmlns="http://www.w3.org/2000/svg" width="176" height="78.52" viewBox="0 0 176 78.52">
  <g id="Group_9954" data-name="Group 9954" transform="translate(-50 -106.444)">
    <text id="ASK_THOSE_WHO_KNOW" data-name="ASK THOSE WHO KNOW" transform="translate(50 180.964)" fill="#3a6cc1" font-size="16" font-family="SegoeUI, Segoe UI"><tspan x="0" y="0">ASK THOSE WHO KNOW</tspan></text>
    <path id="Path_58" data-name="Path 58" d="M-.32,427.562a4.056,4.056,0,0,1-1.167.108c-1.04-.163-.722-.271-.976-.461-.3-1.708,1.38-1.572,2.143.353ZM9.972,416.99c1.358-.57,3.4-1.275,3.714-3.117-.637.352-1.316.65-2.08,1.111-1.273.759-1.146.38-1.634,2.006Zm25.658-3.714,1.571,1.762c.849-1.111.573-.6,1-1.708l-1.443-1.708Zm-105.708.081,1.677,1.383a2.917,2.917,0,0,0,1.188-1.9l-1.762-1.6Zm52.271-16.7h-2.377c-1.634,1.789-1.549-.055-2.674,3.171.934-.433,1.719-.867,2.632-1.382l1.868-1.193a2.034,2.034,0,0,0,.552-.6Zm-78.1,48.115a18.249,18.249,0,0,0,3.1-1.193c1.571-.678,1.634-.19,2.186-2.088-2.547.678-4.69,1.219-5.284,3.28Zm23.683-8.512c1.083-.352,2.059-.786,3.12-1.22,1.443-.569,1.655-.3,2.165-2.141-1.677.516-4.754,1.058-5.285,3.361Zm30.814-26.647c1.04-.541,1.932-1.083,3.1-1.762,1.634-.949,1.74-.515,2.334-2.711-2.568,1.058-4.987,2.088-5.433,4.472ZM34,409.59c2.483-1.138,5.115-2.169,5.369-4.418-2.568,1.083-4.732,2.087-5.369,4.418Zm-102.1-2.06c-1.7-.542-.34.108-1.232-1.627-.488,1.735-.255,2.277-1.867,2.494l-.488-1.789c-1,3.388.7,4.255,1.953,1.87,1.083.514.594.542,1.889.38a5.518,5.518,0,0,0,.743-3.552c-1.019,1.328.064,1.247-1,2.223Zm57.023-3.389c-.085-5.719,5.051,1.383,0,0Zm-.382,1.41c1.316.678,2.207.759,3.056-1.165a5.538,5.538,0,0,0-.679-4.147c-2.355.135-2.992,2.521-2.377,5.312Zm5.645,8.485-.891,2.792c1.294-.976,0-.922,1.655-.6,1.825.38,4.626.922,5.39-2.9-3.035,1.762-2.525,1.708-6.155.7Zm-25.933-4.419c.849-1.192,1.783-.894,2.992-.325-1.125,1.9-2.186.976-2.781,2.766a4.968,4.968,0,0,0,4.436-3.5,3.984,3.984,0,0,0-3.587-1.572c-.806,1.247-.955.813-1.061,2.629Zm54.817-.352c1.167-1.139,1.358-.813,2.907-.353-.891,2.033-1.528.759-2.843,2.738a4.185,4.185,0,0,0,4.52-3.469c-1.528-1.653-4.266-2.521-4.584,1.084ZM-84.848,403c.955-.732,1.422-.841,2.865-.406-.318,1,.106.623-1.167,1.41-1.019.65-.828.135-1.507,1.544,2.038-.433,4.16-1.246,4.436-3.74-2.122-1.653-4.053-2.467-4.627,1.193Zm28.862,1.979a3.908,3.908,0,0,1,.849-1.68c1.273-1.084,1.294.108,1.337.135.213,1.3-1.167,1.519-2.186,1.545Zm-.657-.081c-1.932-.569-2.038-.406-2.483,2.439l.87-1.247c4.818,1.247,5.837-2.114,4.754-4.607-1.889.054-2.271,1.87-3.141,3.415Zm62.117-3.226c-.424-.38-.213-.217-.488-.65.064-.7,1.231-1.3,1.145,1-.106-.027-.636-.352-.657-.352Zm-1.294.542c.743.894.721.433,1.315,1.761a42.245,42.245,0,0,0-3.247,2.9c2.525-.352,2.08-1.491,4.541-3.171l.382-.3c-.488-1.708-.212-2.547-.594-4.391-1.741-.136-2.292,1.058-2.4,3.2Zm6.642,20.221.594,1.627c-.594,1-.913.623-1.019,2.2.892-.352,1.549-.894,2.525-1.247,1.825-.677,1.741.325,2.377-1.87-1.867.244-2.759.814-3.459-1.084,0-.027-.213-.84.87-.623.955.216-.021.054.955.921,1.146-3.252-1.634-3.361-2.843.081Zm-31.9-16.643c-1.018.975-.827.271-1.209,2.114,1.209-.461,1.592-.976,2.8-1.356,1.655-.542,1.889.081,2.356-1.544-1.337-1.193-2.908,1.436-3.735-2.169,1.783-.353,3.034,2.141,2.122-1.572-1.145-.244-1.825.108-2.61,1.328-.955,1.518-.255,1.9.276,3.2ZM-9.53,409.21c-1.4,2.711-.34,7.319-.022,10.464.234,2.3.573,8.837,1.21,10.273,1.253-4.012-1.082-20.52-1.188-20.737Zm-46.54,20.629c1.294-2.141.615-7.184.361-10.165-.3-3.66-.615-9.27-1.231-10.49-.913,3.985-.445,5.746-.022,10.111.192,1.979.552,9.487.892,10.545Zm36.5-20.737c-1.655,2.331-.7,6.885-.382,10.382.233,2.683.212,8.647,1.082,10.49,1.167-4.852-.361-15.18-.7-20.873ZM-66.915,417.4c-1.273,2.277.17,4.039-.021,6.56-.127,1.68-2.611,2.71-5.242,1.735l-.7-.163-.064,2.629c3.183,1.112,4.583.028,6.388-2.168,1.1,2.005,1.676,5.476,4.626,3.686,3.226-2.033.191-13.933.276-17.538a8.826,8.826,0,0,1,.17-1.464l.064-.325c0-.109.021-.217.021-.325.021-.949-.488-1.545-1.061-3.117-1.486,1.816-.658,2.385.021,7.942.361,2.982.722,6.262,1.019,9.325.191,2.006.594,3.227-1.125,3.47-3.692.569-3.522-5.828-4.371-10.246Zm-19.546-3.28c.827-1.166,1.7-1.464,2.971-2.222,1.062-.624,2.122-1.328,3.141-1.925,1.188-.7,2.037-1.22,3.2-1.844,1.867-1.03,1.8-.569,2.228-3.144a50.864,50.864,0,0,0-8.022,4.446c-2.164,1.383-6.154,3.768-4.117,7.915.382.624,5.454,2.657,6.133,8.648-1.209,1.274-3.162,1.572-5.157,1.6-3.013.081-3.056-.433-4.966-1.572-1.061,2.358-.148,2.358,1.019,3.958-1.316,5.638-4.181,6.939-9.338,7.536,1.273,2.06,8.828,3.225,10.123-7.563,4.118.217,10.081.489,8.956-6.18-.51-3.063-2.547-5.773-4.287-7.617a12.811,12.811,0,0,1-1.889-2.033Zm59.274,11.6c-.234-.758.064-1.952.021-3.577a5.809,5.809,0,0,1,2.95,3.794,3.036,3.036,0,0,1-2.971-.217Zm-3.8-1.138c.149-1.87.446-2.494,1.613-3.009a2.724,2.724,0,0,1,1.485,2.467c-1.358,1.952-1.571,1.166-3.1.542Zm-5.432,4.635c3.12,1.627,3.947.786,6.281-1.058,1.783-1.382,4.5,1.789,5.964-.244,3.353-4.716-4.52-10.49-6.325-10.87-.87,3.145.361,2.033-.721,5.015-.892,2.522-.255,3.28-.51,4.907-7.364,4.419-4.583-11.331-6.515-16.291-1.4,3.551.913,18.731,1.146,23.8-.764.624-3.311,4.2-6.77,2.575-3.162-1.491-2.207-4.8-1.676-8.647-2.7,4.2-2.08,11.086,2.843,11.466a5.448,5.448,0,0,0,5.263-2.765c1.294-2.223,1.1-4.744,1.019-7.888Zm73.45-8.187c1.1.136,1.1.325,1.485,1.519-.976.677-1.146.758-2.143,0,.213-1.41.085-.867.658-1.519ZM1,427.616c-1.337-7.454-4.606-2.493-4.584,0,.021,2.467,1.8,2.467,3.671,2.44a10.336,10.336,0,0,1-3.1,5.882c-2.271,1.9-4.839,1.166-6.09,1.979,1.57,1.735,5.793,1.139,7.173-.217,1.7-1.68,2.271-4.5,2.907-7.671,4.1-.027,3.841-.325,5.56-3.577,1,3.415,2.016,3.659,5.327,3.577a18.2,18.2,0,0,0,7.216-1.544c3.5-1.681.827,2.33,5.793-.136.637-.3-.212-.7,1.273-.055.594.272.892.7,1.613.9,1.974.488,1.762-.759,2.76-2.006.615,1.627,1.294,2.657,3.332,2.819,10.272.949,5.688-10.762,4.33-11.385-1.7-.758-3.056,2.82-2.674,4.907.743,4.066,3.82.569,3.841.569.615,4.961-6.388,3.66-7.343,2.711-1.062-1.03-.658-1.9-1.231-3.28A10.49,10.49,0,0,0,29.5,426.8a3.566,3.566,0,0,1-2.4-.515c-.637-.678-.424.244-.064-2.63-1.55.949-1.1,3.335-5.242,2.683l.637-2.874c-1.613,1.6-1.316,2.82-5.709,3.633-1.867.352-6.663.975-8.191,0-2.822-1.762-1.974-14.15-3.183-18.379-1.486,1.952-.085,8.837.169,11.873.488,6.045.7,6.966-4.52,7.02Z" transform="translate(176.131 -290.216)" fill="#e2bc79" fill-rule="evenodd"/>
  </g>
</svg>
