<svg xmlns="http://www.w3.org/2000/svg" width="28" height="28" viewBox="0 0 28 28">
  <g id="Group_9872" data-name="Group 9872" transform="translate(-4822 -112)">
    <rect id="Rectangle_897" data-name="Rectangle 897" width="28" height="28" transform="translate(4822 112)" fill="#bbb" opacity="0"/>
    <path id="Path_440" data-name="Path 440" d="M1635.044,3580.655V3590a.954.954,0,1,1-1.909,0v-9.342a.954.954,0,1,1,1.909,0Zm-.954-8.93a.954.954,0,0,0,.954-.954v-.817a.954.954,0,0,0-1.909,0v.817A.954.954,0,0,0,1634.089,3571.725Zm-13.393,8.251a2.848,2.848,0,1,1-2.848-2.872A2.863,2.863,0,0,1,1620.7,3579.976Zm-1.909,0a.939.939,0,1,0-.939.963A.952.952,0,0,0,1618.788,3579.976Zm10.037,4.694a2.848,2.848,0,1,1-2.848-2.871A2.863,2.863,0,0,1,1628.825,3584.67Zm-1.909,0a.939.939,0,1,0-.939.963A.952.952,0,0,0,1626.916,3584.67Zm10.037-8.838a2.848,2.848,0,1,1-2.848-2.872A2.863,2.863,0,0,1,1636.953,3575.832Zm-1.909,0a.939.939,0,1,0-.939.962A.952.952,0,0,0,1635.044,3575.832Zm-9.068,12.662a.954.954,0,0,0-.954.955V3590a.954.954,0,1,0,1.909,0v-.549A.954.954,0,0,0,1625.977,3588.494Zm0-7.873a.954.954,0,0,0,.954-.954v-9.713a.954.954,0,0,0-1.909,0v9.713A.954.954,0,0,0,1625.977,3580.621Zm-8.113,3.477a.955.955,0,0,0-.954.955V3590a.954.954,0,1,0,1.909,0v-4.945A.955.955,0,0,0,1617.864,3584.1Zm0-8.2a.954.954,0,0,0,.954-.954v-4.993a.954.954,0,0,0-1.909,0v4.993A.954.954,0,0,0,1617.864,3575.9Z" transform="translate(3210.023 -3453.976)" fill="#001e50"/>
  </g>
</svg>
