<svg xmlns="http://www.w3.org/2000/svg" width="28" height="28" viewBox="0 0 28 28">
  <g id="Group_9599" data-name="Group 9599" transform="translate(-177 -179)">
    <rect id="Rectangle_864" data-name="Rectangle 864" width="28" height="28" transform="translate(177 179)" fill="#001e50" opacity="0"/>
    <path id="Path_410" data-name="Path 410" d="M2510.073,1801.508a1.077,1.077,0,0,1,1.077-1.077h11.942a1.077,1.077,0,0,1,0,2.154H2511.15A1.077,1.077,0,0,1,2510.073,1801.508Zm13.019,5.815H2511.15a1.077,1.077,0,0,0,0,2.154h11.942a1.077,1.077,0,0,0,0-2.154Zm0,6.892H2511.15a1.077,1.077,0,0,0,0,2.154h11.942a1.077,1.077,0,0,0,0-2.154Zm-16.589-7.234a1.527,1.527,0,1,0,1.5,1.527A1.515,1.515,0,0,0,2506.5,1806.982Zm0-6.982a1.528,1.528,0,1,0,1.5,1.527A1.515,1.515,0,0,0,2506.5,1800Zm0,13.745a1.527,1.527,0,1,0,1.5,1.527A1.515,1.515,0,0,0,2506.5,1813.745Z" transform="translate(-2323.477 -1615.4)" fill="#001e50"/>
  </g>
</svg>
