<?xml version="1.0" standalone="no"?>
<!DOCTYPE svg PUBLIC "-//W3C//DTD SVG 20010904//EN"
 "http://www.w3.org/TR/2001/REC-SVG-20010904/DTD/svg10.dtd">
<svg version="1.0" xmlns="http://www.w3.org/2000/svg"
 width="84.000000pt" height="84.000000pt" viewBox="0 0 84.000000 84.000000"
 preserveAspectRatio="xMidYMid meet">
<metadata>
Created by potrace 1.15, written by Peter Selinger 2001-2017
</metadata>
<g transform="translate(0.000000,84.000000) scale(0.100000,-0.100000)"
fill="#fff" stroke="none">
<path d="M372 773 c-43 -21 -62 -68 -62 -149 l0 -64 -107 0 c-90 0 -113 -3
-140 -20 l-33 -20 0 -170 0 -170 33 -20 c28 -18 50 -20 184 -20 l152 0 25 -33
c35 -46 70 -64 91 -47 22 18 22 252 0 270 -8 7 -22 10 -30 6 -12 -4 -15 -24
-15 -97 l0 -92 -23 21 c-22 21 -33 22 -173 22 -202 0 -194 -6 -194 156 0 162
2 164 135 164 l95 0 0 -103 c0 -140 23 -161 95 -87 l39 40 149 0 c154 0 197 9
211 45 3 9 6 88 6 175 0 215 5 210 -243 210 -129 0 -169 -4 -195 -17z m376
-65 c15 -15 17 -241 2 -269 -10 -18 -23 -19 -166 -19 -143 0 -158 -2 -182 -21
l-27 -21 -3 147 c-4 207 -16 195 196 195 117 0 172 -4 180 -12z"/>
<path d="M533 665 c-37 -26 -31 -90 7 -87 3 0 5 -25 5 -56 0 -50 2 -57 20 -57
16 0 20 7 20 32 0 21 9 41 28 60 15 16 27 40 27 54 0 49 -67 82 -107 54z"/>
</g>
</svg>
