<svg xmlns="http://www.w3.org/2000/svg" width="237" height="102.217" viewBox="0 0 237 102.217"><g transform="translate(-50 -106.444)"><text transform="translate(50 203.661)" fill="#fff" font-size="20" font-family="Helvetica"><tspan x="0" y="0">ASK THOSE WHO KNOW</tspan></text><path d="M30.793,437.27a5.33,5.33,0,0,1-1.534.142c-1.367-.214-.948-.356-1.283-.606-.391-2.244,1.813-2.066,2.817.464Zm13.526-13.893c1.785-.749,4.463-1.675,4.881-4.1-.837.462-1.73.855-2.733,1.46-1.674,1-1.506.5-2.148,2.636ZM78.037,418.5l2.064,2.316c1.116-1.46.753-.784,1.311-2.244l-1.9-2.244Zm-138.915.107,2.2,1.817a3.834,3.834,0,0,0,1.561-2.493l-2.315-2.1ZM7.813,396.66H4.69c-2.148,2.351-2.036-.072-3.514,4.167,1.227-.569,2.259-1.14,3.458-1.816l2.455-1.568a2.673,2.673,0,0,0,.725-.783ZM-94.818,459.89a23.982,23.982,0,0,0,4.071-1.567c2.064-.891,2.148-.25,2.873-2.743-3.347.891-6.164,1.6-6.944,4.31ZM-63.694,448.7c1.423-.462,2.706-1.033,4.1-1.6,1.9-.748,2.175-.391,2.845-2.814-2.2.677-6.247,1.39-6.945,4.417ZM-23.2,413.687c1.367-.711,2.538-1.424,4.072-2.315,2.148-1.246,2.286-.677,3.068-3.562-3.375,1.39-6.553,2.743-7.14,5.877Zm99.089-.035c3.263-1.5,6.722-2.85,7.056-5.806-3.375,1.424-6.219,2.742-7.056,5.806Zm-134.172-2.707c-2.231-.713-.447.142-1.618-2.138-.641,2.28-.335,2.992-2.454,3.277L-63,409.733c-1.311,4.452.92,5.592,2.566,2.458,1.423.676.781.713,2.482.5a7.251,7.251,0,0,0,.976-4.667c-1.339,1.746.084,1.639-1.311,2.922Zm74.936-4.454c-.111-7.516,6.638,1.817,0,0Zm-.5,1.852c1.73.891,2.9,1,4.016-1.531a7.278,7.278,0,0,0-.892-5.45c-3.1.177-3.932,3.313-3.124,6.981Zm7.418,11.15-1.171,3.67c1.7-1.283,0-1.212,2.175-.784,2.4.5,6.079,1.212,7.084-3.811-3.989,2.315-3.319,2.244-8.088.926Zm-34.08-5.807c1.116-1.567,2.343-1.175,3.932-.427-1.478,2.495-2.873,1.283-3.654,3.634,2.4-.285,5.16-1.745,5.829-4.6a5.236,5.236,0,0,0-4.714-2.066c-1.06,1.639-1.254,1.068-1.394,3.455Zm72.037-.462c1.534-1.5,1.785-1.068,3.82-.464-1.171,2.672-2.008,1-3.737,3.6a5.5,5.5,0,0,0,5.941-4.559c-2.008-2.173-5.606-3.313-6.024,1.425ZM-80.288,405c1.255-.961,1.868-1.1,3.765-.534-.418,1.318.14.819-1.534,1.852-1.339.854-1.088.177-1.98,2.03,2.678-.569,5.466-1.637,5.829-4.915-2.789-2.173-5.327-3.242-6.08,1.567Zm37.929,2.6a5.136,5.136,0,0,1,1.116-2.208c1.674-1.425,1.7.142,1.757.177.279,1.71-1.534,2-2.873,2.031Zm-.864-.107c-2.538-.748-2.678-.534-3.263,3.206l1.143-1.639c6.331,1.639,7.67-2.779,6.247-6.055-2.482.07-2.984,2.457-4.127,4.488Zm81.631-4.239c-.558-.5-.279-.285-.641-.854.084-.926,1.617-1.71,1.505,1.317-.139-.035-.836-.462-.864-.462Zm-1.7.713c.976,1.175.947.569,1.729,2.315a55.521,55.521,0,0,0-4.267,3.812c3.319-.462,2.733-1.959,5.968-4.167l.5-.392c-.641-2.244-.278-3.348-.78-5.771-2.287-.178-3.013,1.39-3.151,4.2Zm8.729,26.574.781,2.138c-.781,1.318-1.2.819-1.339,2.885,1.172-.462,2.036-1.175,3.319-1.639,2.4-.89,2.287.427,3.124-2.458-2.454.32-3.626,1.069-4.545-1.425,0-.035-.279-1.1,1.143-.818,1.254.284-.028.07,1.254,1.21,1.506-4.274-2.147-4.417-3.737.107ZM3.518,408.665c-1.338,1.282-1.087.356-1.589,2.779,1.589-.606,2.092-1.283,3.681-1.782,2.175-.713,2.482.107,3.1-2.03-1.757-1.568-3.821,1.888-4.908-2.85,2.343-.464,3.988,2.814,2.788-2.066-1.505-.321-2.4.142-3.43,1.745-1.255,1.994-.335,2.493.362,4.2Zm15.172,4.488c-1.841,3.563-.447,9.619-.029,13.751.307,3.027.754,11.613,1.59,13.5,1.646-5.272-1.422-26.966-1.561-27.251Zm-61.16,27.109c1.7-2.814.809-9.44.474-13.358-.391-4.809-.809-12.182-1.617-13.786-1.2,5.237-.585,7.551-.029,13.287.252,2.6.725,12.467,1.172,13.857ZM5.5,413.011c-2.175,3.064-.921,9.048-.5,13.644.306,3.526.278,11.363,1.422,13.786,1.534-6.376-.474-19.948-.92-27.429Zm-62.22,10.9c-1.674,2.992.223,5.308-.028,8.621-.167,2.208-3.431,3.561-6.889,2.28l-.92-.214-.084,3.455c4.183,1.461,6.023.036,8.394-2.849,1.45,2.635,2.2,7.2,6.079,4.845,4.239-2.672.251-18.31.363-23.048a11.6,11.6,0,0,1,.223-1.924l.084-.427c0-.143.028-.285.028-.427.028-1.247-.641-2.031-1.394-4.1-1.953,2.386-.865,3.134.028,10.437.474,3.918.948,8.229,1.339,12.254.251,2.636.78,4.24-1.479,4.561-4.852.748-4.629-7.659-5.745-13.465Zm-25.686-4.31c1.087-1.532,2.231-1.924,3.9-2.921,1.4-.819,2.789-1.745,4.128-2.53,1.561-.926,2.677-1.6,4.211-2.423,2.454-1.353,2.37-.748,2.928-4.132-3.123,1.1-7.7,4.062-10.542,5.842-2.844,1.817-8.087,4.951-5.41,10.4.5.819,7.167,3.491,8.06,11.364-1.589,1.674-4.155,2.066-6.777,2.1-3.96.107-4.016-.569-6.526-2.066-1.394,3.1-.195,3.1,1.339,5.2-1.73,7.409-5.495,9.118-12.272,9.9,1.674,2.707,11.6,4.239,13.3-9.939,5.411.285,13.248.642,11.77-8.122-.67-4.025-3.347-7.587-5.634-10.009a16.837,16.837,0,0,1-2.482-2.672Zm77.894,15.246c-.307-1,.084-2.565.028-4.7a7.634,7.634,0,0,1,3.876,4.987,3.99,3.99,0,0,1-3.9-.285Zm-4.993-1.5c.2-2.458.586-3.277,2.12-3.955a3.58,3.58,0,0,1,1.952,3.242c-1.785,2.565-2.064,1.532-4.072.712Zm-7.139,6.091c4.1,2.138,5.187,1.033,8.255-1.39,2.343-1.816,5.913,2.351,7.837-.321,4.406-6.2-5.941-13.786-8.312-14.285-1.143,4.133.474,2.672-.947,6.59-1.172,3.314-.335,4.31-.67,6.448-9.677,5.807-6.023-14.89-8.562-21.409-1.841,4.666,1.2,24.615,1.506,31.276-1,.819-4.351,5.522-8.9,3.384-4.155-1.959-2.9-6.3-2.2-11.363-3.542,5.521-2.733,14.569,3.737,15.068a7.159,7.159,0,0,0,6.916-3.633c1.7-2.922,1.45-6.234,1.339-10.366Zm96.523-10.758c1.45.178,1.45.427,1.952,2-1.283.89-1.506,1-2.817,0,.279-1.852.112-1.14.865-2ZM32.523,437.34c-1.757-9.8-6.053-3.276-6.024,0,.028,3.242,2.37,3.242,4.825,3.207a13.583,13.583,0,0,1-4.072,7.73c-2.984,2.493-6.359,1.532-8,2.6,2.063,2.28,7.613,1.5,9.426-.285,2.231-2.208,2.984-5.913,3.82-10.081,5.383-.035,5.048-.427,7.307-4.7,1.31,4.488,2.65,4.808,7,4.7a23.916,23.916,0,0,0,9.482-2.029c4.6-2.209,1.087,3.063,7.613-.178.837-.392-.278-.926,1.674-.072.781.357,1.172.926,2.119,1.176,2.594.641,2.315-1,3.626-2.637.809,2.138,1.7,3.491,4.378,3.7,13.5,1.247,7.474-14.143,5.69-14.962-2.231-1-4.016,3.706-3.514,6.448.976,5.343,5.02.748,5.048.748.809,6.52-8.4,4.809-9.65,3.563-1.4-1.353-.865-2.493-1.617-4.31-.948,1.353-1.06,2.386-1.674,4.31-.921.072-2.538-.035-3.151-.676-.837-.891-.558.321-.084-3.456-2.037,1.247-1.45,4.382-6.889,3.526l.837-3.776c-2.12,2.1-1.73,3.706-7.5,4.774-2.454.462-8.756,1.282-10.764,0-3.709-2.316-2.594-18.595-4.183-24.152-1.953,2.565-.112,11.613.222,15.6.641,7.944.921,9.155-5.94,9.225Z" transform="translate(184.54 -290.216)" fill="#e2bc79" fill-rule="evenodd"/></g></svg>