<svg xmlns="http://www.w3.org/2000/svg" width="28" height="28" viewBox="0 0 28 28">
<g transform="translate(-3480 -194)"><rect width="28" height="28" transform="translate(3480 194)" fill="#fff" opacity="0"/>
<path d="M2315.589,2035.7a3.3,3.3,0,0,1,.767,2.589,2.622,2.622,0,0,1-2.735,2.469.907.907,0,0,0-.1,0v.46a.758.758,0,0,1-1.517,0v-.611c0-.625.26-1.369,1.619-1.369a1.117,1.117,0,0,0,1.216-1.133,1.819,1.819,0,0,0-.389-1.4,2.222,2.222,0,0,0-1.737-.612c-1.716,0-1.765,1.109-1.765,1.236a.758.758,0,1,1-1.517,0c0-.766.59-2.752,3.282-2.752A3.662,3.662,0,0,1,2315.589,2035.7Zm-2.878,6.925a.948.948,0,1,0,.671.279A.96.96,0,0,0,2312.711,2042.623Z" transform="translate(1188.076 -1831.632)" fill="#fff"/><path d="M2315.589,2035.7a3.3,3.3,0,0,1,.767,2.589,2.622,2.622,0,0,1-2.735,2.469.907.907,0,0,0-.1,0v.46a.758.758,0,0,1-1.517,0v-.611c0-.625.26-1.369,1.619-1.369a1.117,1.117,0,0,0,1.216-1.133,1.819,1.819,0,0,0-.389-1.4,2.222,2.222,0,0,0-1.737-.612c-1.716,0-1.765,1.109-1.765,1.236a.758.758,0,1,1-1.517,0c0-.766.59-2.752,3.282-2.752A3.662,3.662,0,0,1,2315.589,2035.7Zm-2.878,6.925a.948.948,0,1,0,.671.279A.96.96,0,0,0,2312.711,2042.623Z" transform="translate(1173.645 -1831.632)" fill="#fff"/>
<path d="M2319.541,2036.418a5.418,5.418,0,0,1,1.258,4.25,4.3,4.3,0,0,1-4.489,4.053,1.445,1.445,0,0,0-.168.005v.756a1.245,1.245,0,0,1-2.49,0v-1c0-1.025.428-2.248,2.658-2.248a1.834,1.834,0,0,0,2-1.86,2.987,2.987,0,0,0-.639-2.3,3.648,3.648,0,0,0-2.852-1c-2.816,0-2.9,1.821-2.9,2.028a1.245,1.245,0,0,1-2.49,0c0-1.257.968-4.518,5.387-4.518A6.012,6.012,0,0,1,2319.541,2036.418Zm-4.725,11.367a1.557,1.557,0,1,0,1.1.458A1.576,1.576,0,0,0,2314.816,2047.785Z" transform="translate(1179.03 -1834.781)" fill="#fff"/>
</g>
</svg>