<?xml version="1.0" encoding="UTF-8"?>
<svg xmlns="http://www.w3.org/2000/svg" xmlns:xlink="http://www.w3.org/1999/xlink" width="20" height="28" viewBox="-1 0 20 20" version="1.1">
<g id="surface1">
<path style=" stroke:none;fill-rule:nonzero;fill:#fff;fill-opacity:1;" d="M 9.683594 0.90625 C 9.117188 1.023438 8.609375 1.40625 8.40625 1.871094 C 8.214844 2.3125 8.027344 2.585938 7.738281 2.859375 C 7.4375 3.144531 7.222656 3.246094 6.839844 3.289062 C 6.457031 3.328125 5.957031 3.253906 5.554688 3.09375 C 5.238281 2.96875 5.042969 2.929688 4.753906 2.945312 C 4.363281 2.964844 3.996094 3.089844 3.714844 3.300781 C 3.285156 3.617188 3.039062 4.167969 3.074219 4.734375 C 3.085938 4.9375 3.113281 5.019531 3.28125 5.449219 C 3.382812 5.703125 3.4375 6.007812 3.4375 6.324219 C 3.4375 6.847656 3.351562 7.046875 2.941406 7.4375 C 2.652344 7.710938 2.441406 7.84375 2.042969 8.011719 C 1.730469 8.144531 1.589844 8.234375 1.410156 8.417969 C 1.171875 8.664062 0.988281 9.015625 0.933594 9.339844 C 0.84375 9.855469 1.070312 10.425781 1.519531 10.824219 C 1.671875 10.960938 1.792969 11.027344 2.160156 11.183594 C 2.496094 11.324219 2.785156 11.523438 3.054688 11.804688 C 3.355469 12.113281 3.4375 12.332031 3.4375 12.804688 C 3.4375 12.992188 3.425781 13.164062 3.398438 13.285156 C 3.367188 13.460938 3.328125 13.574219 3.140625 14.054688 C 3.089844 14.191406 3.082031 14.242188 3.082031 14.5 C 3.082031 14.742188 3.089844 14.824219 3.132812 14.96875 C 3.28125 15.46875 3.566406 15.808594 4.011719 16.015625 C 4.28125 16.140625 4.4375 16.179688 4.742188 16.195312 C 5.058594 16.207031 5.199219 16.183594 5.546875 16.054688 C 6.214844 15.800781 6.964844 15.78125 7.382812 16.007812 C 7.550781 16.097656 7.9375 16.46875 8.089844 16.6875 C 8.15625 16.78125 8.257812 16.953125 8.3125 17.070312 C 8.488281 17.4375 8.550781 17.542969 8.671875 17.675781 C 8.894531 17.914062 9.207031 18.105469 9.546875 18.207031 C 9.792969 18.277344 10.207031 18.277344 10.453125 18.207031 C 10.949219 18.058594 11.355469 17.742188 11.546875 17.359375 C 11.597656 17.261719 11.675781 17.097656 11.726562 17 C 11.851562 16.746094 12.0625 16.472656 12.292969 16.261719 C 12.535156 16.039062 12.683594 15.953125 12.933594 15.894531 C 13.101562 15.851562 13.167969 15.847656 13.476562 15.859375 C 13.886719 15.871094 14.074219 15.910156 14.46875 16.058594 C 14.613281 16.113281 14.777344 16.167969 14.847656 16.179688 C 15 16.210938 15.472656 16.191406 15.648438 16.144531 C 15.84375 16.09375 16.125 15.960938 16.289062 15.84375 C 16.644531 15.589844 16.894531 15.105469 16.925781 14.621094 C 16.941406 14.339844 16.910156 14.160156 16.78125 13.851562 C 16.660156 13.558594 16.601562 13.324219 16.566406 13.03125 C 16.542969 12.773438 16.566406 12.449219 16.632812 12.269531 C 16.769531 11.898438 17.265625 11.445312 17.789062 11.210938 C 18.28125 10.992188 18.316406 10.972656 18.488281 10.820312 C 18.855469 10.488281 19.089844 10.003906 19.089844 9.566406 C 19.089844 9.160156 18.878906 8.699219 18.535156 8.371094 C 18.347656 8.1875 18.285156 8.152344 17.808594 7.949219 C 17.304688 7.730469 16.78125 7.257812 16.636719 6.890625 C 16.496094 6.523438 16.535156 5.894531 16.738281 5.398438 C 16.914062 4.964844 16.917969 4.957031 16.917969 4.636719 C 16.917969 4.394531 16.910156 4.316406 16.867188 4.175781 C 16.722656 3.695312 16.46875 3.378906 16.066406 3.160156 C 15.773438 3.003906 15.425781 2.929688 15.070312 2.945312 C 14.824219 2.957031 14.796875 2.964844 14.316406 3.136719 C 13.761719 3.332031 13.058594 3.347656 12.6875 3.171875 C 12.261719 2.964844 11.863281 2.488281 11.59375 1.871094 C 11.300781 1.195312 10.421875 0.75 9.683594 0.90625 Z M 10.644531 6.445312 C 11.3125 6.574219 11.867188 6.859375 12.351562 7.328125 C 12.847656 7.800781 13.171875 8.394531 13.285156 9.046875 C 13.328125 9.304688 13.335938 9.777344 13.296875 10.027344 C 13.222656 10.523438 12.976562 11.09375 12.671875 11.472656 C 12.28125 11.972656 11.703125 12.378906 11.113281 12.582031 C 10.710938 12.714844 10.492188 12.75 9.988281 12.746094 C 9.601562 12.746094 9.503906 12.738281 9.316406 12.695312 C 8.398438 12.488281 7.703125 12.035156 7.210938 11.316406 C 6.847656 10.789062 6.675781 10.234375 6.675781 9.582031 C 6.671875 9.070312 6.765625 8.660156 6.980469 8.230469 C 7.117188 7.957031 7.191406 7.839844 7.378906 7.609375 C 7.929688 6.925781 8.789062 6.476562 9.703125 6.394531 C 9.917969 6.375 10.417969 6.402344 10.644531 6.445312 Z M 10.644531 6.445312 "/>
</g>
</svg>
