<svg xmlns="http://www.w3.org/2000/svg" width="48" height="48" viewBox="0 0 48 48">
  <g id="Group_10035" data-name="Group 10035" transform="translate(-126.811 -467.811)">
    <path id="Path_488" data-name="Path 488" d="M170.156,506.012a24,24,0,1,0-38.291.535c.643-3.795,2.237-12.58,4.1-18.086,2.418-7.182,6.195-14.817,10.778-16.791A12.753,12.753,0,0,1,154,470.9c6.892,1.268,9.084,8.758,9.627,14.9.48,5.407,0,10.415,3.587,14.518,1.177,1.35,2.753,5.217,2.943,5.7Z" transform="translate(0 0)" fill="#e2bc79" fill-rule="evenodd"/>
    <path id="Path_489" data-name="Path 489" d="M189.91,480.66s6.421-1.44,10.913,3.1,3.242,13.422,3.242,13.422,1.829-6.376-.6-11.538a9.926,9.926,0,0,0-13.558-4.981Z" transform="translate(-42.939 -8.049)" fill="#c7a76e" fill-rule="evenodd"/>
    <path id="Path_490" data-name="Path 490" d="M175.17,565.039c2.346,4.3,6.493,7.164,10.424,8.993.263.127-2.436,1.413-4.32.462-2.391-1.2-5.588-5.117-6.1-9.455Z" transform="translate(-32.908 -66.164)" fill="#c7a76e" fill-rule="evenodd"/>
    <path id="Path_491" data-name="Path 491" d="M177.408,583.436s2.337,4.565,4.583,6.131c3.74,2.617,7.4,3.278,11.348-1.187,1.15-1.3,1.929-2.029,1.929-2.029-1.956,4.655-5,8.078-10.705,6.312-3.713-1.15-8.332-4.909-7.155-9.229Z" transform="translate(-34.304 -78.683)" fill="#c7a76e" fill-rule="evenodd"/>
    <path id="Path_492" data-name="Path 492" d="M173.83,494.768c-3.369,5.977-5.3,17.579-3.668,20.16l-1.449-2.291c-.054-.09-2.617-9.346,5.117-17.869Z" transform="translate(-28.208 -18.344)" fill="#c7a76e" fill-rule="evenodd"/>
    <path id="Path_493" data-name="Path 493" d="M186.349,498.51c-2.029,3.288-7.5,7.644-7.789,12.661-.281,4.918,2.59,11.728,8.187,11.674,5.325-.054,8.694-5.117,8.423-11.964-.163-4.184-6.72-9.582-8.821-12.371Z" transform="translate(-35.203 -20.891)" fill="#001e50" fill-rule="evenodd"/>
    <path id="Path_494" data-name="Path 494" d="M173.31,600.963a24.835,24.835,0,0,0,3.478,1.032,14.511,14.511,0,0,1-1.576-1.766,27.014,27.014,0,0,1-2.735-4.972,35.959,35.959,0,0,0,.833,5.706Z" transform="translate(-31.076 -86.727)" fill="#c7a76e" fill-rule="evenodd"/>
    <path id="Path_495" data-name="Path 495" d="M156.631,598.456a24.887,24.887,0,0,0,3.061,1.974,17.614,17.614,0,0,1,.525-4.039Z" transform="translate(-20.293 -87.499)" fill="#c7a76e" fill-rule="evenodd"/>
    <path id="Path_496" data-name="Path 496" d="M145.378,552.127c.244.272.489.552.743.815,1.848-7.97,5.642-9.111,4.465-19.707l-1.639,7.2Z" transform="translate(-12.635 -44.521)" fill="#c7a76e" fill-rule="evenodd"/>
    <path id="Path_497" data-name="Path 497" d="M150.112,566.539c.371.344.752.688,1.141,1.014l6.5-3.36a4.876,4.876,0,0,1,.543-3c.208-.3-1.5-3.6-1.531-6.385l-1.576-2.726a26.378,26.378,0,0,1-2.817,8.024c-.353.679-1.675,4.655-2.264,6.43Z" transform="translate(-15.856 -57.349)" fill="#001e50" fill-rule="evenodd"/>
    <path id="Path_498" data-name="Path 498" d="M190.027,577.211a23.88,23.88,0,0,0,10.56-2.445c.281-.879.634-2.056.942-3.2a19.329,19.329,0,0,0,.6-3.768c.145-2.291.715-9.763.715-9.763l-1.648,10.877c-3.26,9.763-9.4,9.383-16.755,5.353l2.065,2.69a25.123,25.123,0,0,0,3.523.253Z" transform="translate(-39.216 -61.4)" fill="#001e50" fill-rule="evenodd"/>
    <path id="Path_499" data-name="Path 499" d="M238.836,576.82a24.361,24.361,0,0,0,2.219-1.422c.027-3.6-.127-13.286-.317-13.395-.217-.127-.353,10.379-1.322,13.105-.244.7-.435,1.259-.58,1.712Z" transform="translate(-76.233 -64.097)" fill="#c7a76e" fill-rule="evenodd"/>
    <path id="Path_500" data-name="Path 500" d="M248.327,578.366a24.109,24.109,0,0,0,2.79-2.644c.253-.326.5-.634.724-.906a28.354,28.354,0,0,0-2.59-5.669,8.532,8.532,0,0,0-1.259-1.612c.054,3.6.3,7.254.335,10.832Z" transform="translate(-82.464 -67.862)" fill="#001e50" fill-rule="evenodd"/>
    <path id="Path_501" data-name="Path 501" d="M190.931,565.783c5.226,3.532,13.9-3.786,15.885-14.237l-2.255,11.837s-3.5,3.777-5.171,4.682c-2.835,1.54-5.072,1.105-8.459-2.282Z" transform="translate(-43.634 -56.982)" fill="#001e50" fill-rule="evenodd"/>
  </g>
</svg>
