<svg xmlns="http://www.w3.org/2000/svg" width="48" height="48" viewBox="0 0 48 48">
  <g id="Group_9970" data-name="Group 9970" transform="translate(-18 -390)">
    <g id="Group_9964" data-name="Group 9964" transform="translate(-320.811 -4524.811)">
      <path id="Path_456" data-name="Path 456" d="M403.513,5045.468a24.056,24.056,0,0,0,3.043-.19c.426-2.065,1.376-6.7,1.82-8.831a7.064,7.064,0,0,1-4.365,1.748,6.412,6.412,0,0,1-5.389-1.92c.417,2.038,1.413,6.883,1.848,9a24.05,24.05,0,0,0,3.043.19Z" transform="translate(-40.702 -82.657)" fill="#001e50" fill-rule="evenodd"/>
      <path id="Path_457" data-name="Path 457" d="M391.025,5036.26a25.651,25.651,0,0,0,3.034.761c-.435-2.119-1.585-8.034-2.011-10.071a24.293,24.293,0,0,1-.924-2.608,65.051,65.051,0,0,0-.1,11.918Z" transform="translate(-35.378 -74.536)" fill="#001e50" fill-rule="evenodd"/>
      <path id="Path_458" data-name="Path 458" d="M380.2,5030.434a24.033,24.033,0,0,0,2.436,1.014,55.729,55.729,0,0,1,.725-13.513l-2.038.97a67.482,67.482,0,0,0-1.123,11.529Z" transform="translate(-28.163 -70.176)" fill="#c7a76e" fill-rule="evenodd"/>
      <path id="Path_459" data-name="Path 459" d="M353.58,5026.452a19.619,19.619,0,0,0,7.417,6.376,55.246,55.246,0,0,1,1.123-10.442Z" transform="translate(-10.05 -73.205)" fill="#001e50" fill-rule="evenodd"/>
      <path id="Path_460" data-name="Path 460" d="M430.059,5036.26a25.637,25.637,0,0,1-3.034.761c.435-2.119,1.585-8.034,2.011-10.071a24.3,24.3,0,0,0,.924-2.608,65.029,65.029,0,0,1,.1,11.918Z" transform="translate(-60.03 -74.536)" fill="#001e50" fill-rule="evenodd"/>
      <path id="Path_461" data-name="Path 461" d="M441.1,5030.434a24.069,24.069,0,0,1-2.436,1.014,55.73,55.73,0,0,0-.724-13.513l2.038.97a67.547,67.547,0,0,1,1.123,11.529Z" transform="translate(-67.457 -70.176)" fill="#c7a76e" fill-rule="evenodd"/>
      <path id="Path_462" data-name="Path 462" d="M456.258,5026.452a19.622,19.622,0,0,1-7.417,6.376,55.216,55.216,0,0,0-1.123-10.442Z" transform="translate(-74.111 -73.205)" fill="#001e50" fill-rule="evenodd"/>
      <path id="Path_463" data-name="Path 463" d="M403.679,4967.785l-.018.77c-.009.063-.009.117-.018.172a22.1,22.1,0,0,1-1.359,5.253,11.437,11.437,0,0,1-1.549,3.17l-1.014-1.386-2.164-.942-2.11,1.041-2.228-.878-2,.96-1.232,1.856a8.767,8.767,0,0,1-1.739-2.635c-.389-.906-1.041-2.871-1.476-4.275-.081-.58-.217-1.458-.326-2.138-.2-1.965.181-3.831,1.974-5.089a11.3,11.3,0,0,1,5.887-1.748,11.188,11.188,0,0,1,6.765,1.3,5.18,5.18,0,0,1,2.608,4.564Zm-.027.942-.018.688c.009-.435.009-.688.009-.688Zm-3.84,9.428a8.6,8.6,0,0,1-4.4,1.884,7.5,7.5,0,0,1-4.5-1.44l1.123-1.648,6.467-.244Z" transform="translate(-32.382 -32.026)" fill="#001e50" fill-rule="evenodd"/>
      <path id="Path_464" data-name="Path 464" d="M382.627,4952.359a24,24,0,1,0-39.641-.018l12.027-5.669c-.408-2.455-.652-5.307-.77-7.028a1.685,1.685,0,0,1-.851-.489,6.668,6.668,0,0,1-.842-1.784,6.51,6.51,0,0,1-2.246-2.146,10.349,10.349,0,0,1,.308-11.61c5.679-8.486,18.675-8.105,23.276,1.068a10.153,10.153,0,0,1,.679,7.526,16.881,16.881,0,0,1-.888,2.128h0s-.879,4.33-1.413,4.818-1.069.652-1.06.29c-.054,1.594-.163,3.7-.353,5.915-.045.443-.091.9-.154,1.349l1.766.842h0Z" fill="#e2bc79" fill-rule="evenodd"/>
    </g>

  </g>
</svg>
