<svg xmlns="http://www.w3.org/2000/svg" width="120" height="120" viewBox="0 0 120 120"><g transform="translate(-338.811 -4914.811)"><path d="M410.848,5059.257a59.957,59.957,0,0,0,7.608-.476c1.064-5.162,3.441-16.755,4.55-22.076a17.656,17.656,0,0,1-10.913,4.37c-5.932.453-10.3-1.494-13.472-4.8,1.042,5.094,3.532,17.209,4.619,22.506a59.942,59.942,0,0,0,7.607.476Z" transform="translate(-12.037 -24.445)" fill="#bbb" fill-rule="evenodd"/><path d="M391.365,5054.138a64.038,64.038,0,0,0,7.585,1.9c-1.086-5.3-3.962-20.084-5.026-25.178a60.654,60.654,0,0,1-2.309-6.521,162.622,162.622,0,0,0-.249,29.8Z" transform="translate(-10.463 -22.044)" fill="#bbb" fill-rule="evenodd"/><path d="M380.2,5049.182a59.966,59.966,0,0,0,6.09,2.535c-.951-10.279.227-27.215,1.812-33.781L383,5020.359a168.7,168.7,0,0,0-2.808,28.822Z" transform="translate(-8.329 -20.755)" fill="#fff" fill-rule="evenodd"/><path d="M353.58,5032.552a49.051,49.051,0,0,0,18.543,15.939,138.116,138.116,0,0,1,2.808-26.1Z" transform="translate(-2.972 -21.651)" fill="#bbb" fill-rule="evenodd"/><path d="M434.61,5054.138a64,64,0,0,1-7.585,1.9c1.087-5.3,3.963-20.084,5.026-25.178a60.694,60.694,0,0,0,2.309-6.521,162.568,162.568,0,0,1,.249,29.8Z" transform="translate(-17.754 -22.044)" fill="#bbb" fill-rule="evenodd"/><path d="M445.841,5049.182a60.06,60.06,0,0,1-6.091,2.535c.951-10.279-.226-27.215-1.811-33.781l5.094,2.424a168.882,168.882,0,0,1,2.808,28.822Z" transform="translate(-19.95 -20.755)" fill="#fff" fill-rule="evenodd"/><path d="M469.069,5032.552a49.058,49.058,0,0,1-18.544,15.939,138.041,138.041,0,0,0-2.808-26.1Z" transform="translate(-21.918 -21.651)" fill="#bbb" fill-rule="evenodd"/><path d="M429.6,4976.652l-.046,1.925c-.022.157-.022.293-.045.43-.362,4.347-1.924,8.943-3.4,13.133a28.6,28.6,0,0,1-3.871,7.925l-2.536-3.465-5.411-2.354-5.276,2.6-5.57-2.2-5,2.4-3.079,4.641a21.9,21.9,0,0,1-4.348-6.588c-.973-2.264-2.6-7.178-3.69-10.687-.2-1.448-.543-3.645-.816-5.344-.5-4.912.453-9.576,4.936-12.724,2.943-2.083,7.539-3.9,14.717-4.37,7.924-.543,13.313,1.041,16.913,3.261a12.949,12.949,0,0,1,6.521,11.411Zm-.068,2.354-.046,1.722c.022-1.088.022-1.722.022-1.722Zm-9.6,23.569c-2.49,2.174-5.955,3.872-11,4.71a18.749,18.749,0,0,1-11.253-3.6l2.808-4.121,16.167-.609Z" transform="translate(-9.577 -9.471)" fill="#bbb" fill-rule="evenodd"/><path d="M448.351,5008.682a60,60,0,1,0-99.1-.044l30.068-14.174c-1.019-6.136-1.63-13.268-1.925-17.569a4.221,4.221,0,0,1-2.128-1.223,16.682,16.682,0,0,1-2.105-4.461,16.267,16.267,0,0,1-5.615-5.366c-6.227-9.894-4.845-20.6.769-29.026,14.2-21.215,46.687-20.264,58.189,2.672,2.716,5.456,3.8,12.7,1.7,18.815a42.139,42.139,0,0,1-2.219,5.319h0s-2.2,10.824-3.532,12.047c-1.313,1.223-2.672,1.629-2.649.724-.136,3.985-.407,9.261-.883,14.786-.113,1.108-.227,2.241-.385,3.373l4.415,2.105h0Z" transform="translate(0 0)" fill="#fff" fill-rule="evenodd"/></g></svg>