<svg xmlns="http://www.w3.org/2000/svg" width="237" height="243.766" viewBox="0 0 237 243.766"><g transform="translate(-67 -252)"><g transform="translate(128 252)"><path d="M39.438,442.559a42.02,42.02,0,0,1-3.477,2.782V466.1c1.167-.515,2.334-1.054,3.477-1.638Z" transform="translate(48.834 -351.572)" fill="#3a6cc1" fill-rule="evenodd"/><path d="M27.634,465.279V436.961a1.787,1.787,0,0,0-.538-1.256,1.715,1.715,0,0,0-1.234-.516h0c-4.152.022-11.467,1.661-15.393,7.966a1.6,1.6,0,0,0-.247.9v25.265c6.575-.247,17.412-3.882,17.412-4.039Z" transform="translate(54.199 -350.036)" fill="#e2bc79" fill-rule="evenodd"/><path d="M-43.292,438.28v-9.4a53.773,53.773,0,0,1-4.914-4.331A52.077,52.077,0,0,1-63.33,391.092a52.06,52.06,0,0,1,10.591-35.228,55.892,55.892,0,0,1,4.6-5.228A52.16,52.16,0,0,1-11.161,335.31a52.212,52.212,0,0,1,37,15.326,52.614,52.614,0,0,1,4.578,5.228,52.168,52.168,0,0,1,10.613,35.228,52.215,52.215,0,0,1-15.146,33.456,53.578,53.578,0,0,1-4.892,4.331v9.4A60.278,60.278,0,0,0,41.12,417.1a59.777,59.777,0,0,0,7.719-29.484A59.83,59.83,0,0,0,31.27,345.183a59.792,59.792,0,0,0-42.431-17.569,59.83,59.83,0,0,0-42.431,17.569,59.83,59.83,0,0,0-17.57,42.431A59.777,59.777,0,0,0-63.442,417.1,60.145,60.145,0,0,0-43.292,438.28Z" transform="translate(71.161 -327.614)" fill="#78b2fe" fill-rule="evenodd"/><path d="M21.668,360.755c.4.4.83.83,1.234,1.279a41.937,41.937,0,0,1,11.107,29.484A42.147,42.147,0,0,1,21.735,420.4a2.927,2.927,0,0,1,1.346.785h0a3.036,3.036,0,0,1,.9,2.132v3.837c.785-.7,1.571-1.436,2.311-2.177a48.434,48.434,0,0,0,14.136-31.93,48.437,48.437,0,0,0-10.9-33.231c-1.01-1.234-2.11-2.446-3.276-3.613a48.527,48.527,0,0,0-34.42-14.271,48.438,48.438,0,0,0-34.4,14.271c-1.19,1.167-2.266,2.379-3.3,3.613a48.548,48.548,0,0,0-10.905,33.231,48.605,48.605,0,0,0,14.137,31.93c.762.741,1.525,1.481,2.334,2.177v-3.837a3.019,3.019,0,0,1,.875-2.132,2.933,2.933,0,0,1,1.346-.785,42.1,42.1,0,0,1-12.274-28.9,42.086,42.086,0,0,1,11.107-29.461c.427-.449.83-.875,1.234-1.279A42.1,42.1,0,0,1-8.175,348.391a42.067,42.067,0,0,1,29.843,12.364Z" transform="translate(68.176 -330.598)" fill="#3a6cc1" fill-rule="evenodd"/><path d="M19.277,422.808c.875-.741,1.727-1.5,2.535-2.311a38.575,38.575,0,0,0,11.152-24.7,38.359,38.359,0,0,0-7.853-25.983,37.931,37.931,0,0,0-3.344-3.815A38.463,38.463,0,0,0-5.517,354.685,38.374,38.374,0,0,0-32.78,365.994a35.481,35.481,0,0,0-3.366,3.815A38.374,38.374,0,0,0-44,395.814,38.43,38.43,0,0,0-32.825,420.5c.808.808,1.638,1.593,2.513,2.311,0-.382,0-4.6.022-4.6a3.02,3.02,0,0,1,.875-2.132,3.06,3.06,0,0,1,2-.9l-.023-.022a30.93,30.93,0,0,1-9.042-20.8,30.826,30.826,0,0,1,7.561-21.406,20.042,20.042,0,0,1,1.5-1.593,30.837,30.837,0,0,1,21.9-9.087A30.887,30.887,0,0,1,16.4,371.356c.516.516,1.01,1.032,1.481,1.593a30.823,30.823,0,0,1,7.562,21.406,30.9,30.9,0,0,1-9.02,20.8l-.045.022a3.06,3.06,0,0,1,2,.9,2.949,2.949,0,0,1,.9,2.132Z" transform="translate(65.518 -333.256)" fill="#124a91" fill-rule="evenodd"/><path d="M20.826,410.9a27.772,27.772,0,0,0,4.084-17.883A27.818,27.818,0,0,0,16.967,376.5a27.636,27.636,0,0,0-19.633-8.123A27.584,27.584,0,0,0-22.278,376.5a27.691,27.691,0,0,0-7.9,16.021,27.721,27.721,0,0,0,3.5,17.5A28.241,28.241,0,0,0-23,415,27.259,27.259,0,0,0-18.374,419a23.578,23.578,0,0,1,8.258,3.1,18.137,18.137,0,0,1,5.744,5.721,3.307,3.307,0,0,1,.27.651,2.371,2.371,0,0,1,.089.7V455.37l.494.022h1.727l.472-.022V429.162a3.457,3.457,0,0,1,.089-.7,2.417,2.417,0,0,1,.291-.651,17.851,17.851,0,0,1,5.722-5.721A23.58,23.58,0,0,1,13.04,419a27.782,27.782,0,0,0,4.286-3.635,27.873,27.873,0,0,0,3.5-4.465ZM-3.116,379.82a13.9,13.9,0,0,1,8.482,2.513,8.157,8.157,0,0,1,3.141,6.709c0,4.219-3.3,6.575-5.789,8.347A10.1,10.1,0,0,0,.452,399.3a4.911,4.911,0,0,0-.629,1.346c-.516,1.324-.987,2.535-3.321,2.535a3.068,3.068,0,0,1-2.288-.92,3.546,3.546,0,0,1-.943-2.424c0-2.962,2.2-4.645,4.309-6.283,1.75-1.346,3.433-2.648,3.433-4.51A3.159,3.159,0,0,0,0,386.551a4.174,4.174,0,0,0-2.85-.92c-2.76,0-3.478,1.548-4.151,3.006-.7,1.459-1.324,2.828-3.568,2.828a3.475,3.475,0,0,1-2.379-.853,2.933,2.933,0,0,1-.9-2.222,7.87,7.87,0,0,1,3.3-6.036,12.21,12.21,0,0,1,7.427-2.535Zm-.2,25.445a3.931,3.931,0,0,1,2.827,1.189A3.93,3.93,0,0,1,.7,409.281a3.981,3.981,0,0,1-1.19,2.85,4.022,4.022,0,0,1-2.827,1.189,4.075,4.075,0,0,1-2.85-1.189,4.077,4.077,0,0,1-1.19-2.85,4.024,4.024,0,0,1,1.19-2.827,4.023,4.023,0,0,1,2.85-1.189Z" transform="translate(62.667 -336.11)" fill="#3a6cc1" fill-rule="evenodd"/><path d="M-31.079,442.559c1.122.987,2.266,1.908,3.478,2.782V466.1c-1.167-.515-2.334-1.054-3.478-1.638Z" transform="translate(62.807 -351.572)" fill="#3a6cc1" fill-rule="evenodd"/><path d="M-22.915,465.279V436.961a1.765,1.765,0,0,1,.516-1.256,1.765,1.765,0,0,1,1.256-.516h0c4.152.022,11.466,1.661,15.393,7.966a1.794,1.794,0,0,1,.247.9v25.265c-6.575-.247-17.412-3.882-17.412-4.039Z" transform="translate(61.105 -350.036)" fill="#e2bc79" fill-rule="evenodd"/></g><text transform="translate(67 490.766)" fill="#3a6cc1" font-size="20" font-family="Helvetica"><tspan x="0" y="0">ASK THOSE WHO KNOW</tspan></text><path d="M24.312,435.248a5.063,5.063,0,0,1-1.457.135c-1.3-.2-.9-.338-1.219-.576-.371-2.133,1.723-1.963,2.677.441Zm12.853-13.2c1.7-.712,4.241-1.592,4.638-3.893-.8.439-1.643.812-2.6,1.388-1.59.948-1.431.474-2.041,2.505ZM69.2,417.409l1.961,2.2c1.06-1.388.715-.745,1.245-2.133l-1.8-2.133Zm-132,.1,2.094,1.727a3.643,3.643,0,0,0,1.484-2.369l-2.2-2ZM2.477,396.66H-.491c-2.041,2.234-1.934-.068-3.339,3.96,1.166-.541,2.146-1.083,3.286-1.725l2.332-1.49a2.541,2.541,0,0,0,.689-.744Zm-97.521,60.081a22.785,22.785,0,0,0,3.868-1.489c1.961-.847,2.041-.238,2.73-2.607-3.18.847-5.857,1.523-6.6,4.1Zm29.574-10.629c1.352-.439,2.571-.981,3.9-1.524,1.8-.71,2.067-.371,2.7-2.674-2.094.644-5.936,1.321-6.6,4.2Zm38.478-33.274c1.3-.676,2.412-1.353,3.869-2.2,2.041-1.184,2.173-.644,2.915-3.385-3.207,1.321-6.227,2.607-6.784,5.585Zm94.155-.033c3.1-1.421,6.387-2.708,6.7-5.517-3.207,1.353-5.909,2.606-6.7,5.517Zm-127.492-2.572c-2.12-.677-.424.135-1.538-2.031-.61,2.166-.318,2.843-2.332,3.114l-.61-2.234c-1.245,4.231.874,5.314,2.438,2.336,1.352.642.742.677,2.359.474a6.89,6.89,0,0,0,.927-4.435c-1.272,1.659.079,1.557-1.245,2.776ZM10.876,406c-.106-7.142,6.308,1.727,0,0Zm-.477,1.76c1.643.847,2.756.948,3.816-1.454a6.915,6.915,0,0,0-.848-5.179c-2.941.168-3.737,3.148-2.968,6.633Zm7.049,10.6-1.112,3.487c1.616-1.219,0-1.151,2.067-.745,2.279.474,5.777,1.151,6.731-3.622-3.79,2.2-3.153,2.133-7.686.88Zm-32.383-5.518c1.06-1.489,2.226-1.116,3.737-.406-1.4,2.37-2.73,1.219-3.472,3.453,2.279-.271,4.9-1.659,5.539-4.367a4.975,4.975,0,0,0-4.479-1.963c-1.007,1.557-1.192,1.015-1.325,3.283Zm68.45-.439c1.457-1.422,1.7-1.015,3.63-.441-1.113,2.539-1.908.948-3.551,3.419a5.226,5.226,0,0,0,5.645-4.332c-1.908-2.065-5.327-3.148-5.724,1.354Zm-134.754-7.819c1.193-.913,1.775-1.05,3.578-.507-.4,1.253.133.779-1.457,1.76-1.272.812-1.034.168-1.882,1.929,2.545-.541,5.194-1.556,5.539-4.67-2.65-2.065-5.061-3.081-5.777,1.489Zm36.04,2.471a4.88,4.88,0,0,1,1.06-2.1c1.59-1.354,1.616.135,1.67.168.265,1.625-1.457,1.9-2.73,1.93Zm-.821-.1c-2.412-.711-2.545-.508-3.1,3.046l1.086-1.557c6.016,1.557,7.288-2.64,5.936-5.753-2.359.067-2.835,2.335-3.922,4.264Zm77.566-4.028c-.53-.474-.266-.271-.61-.812.079-.88,1.537-1.625,1.43,1.251-.132-.033-.795-.439-.821-.439Zm-1.616.677c.927,1.116.9.541,1.643,2.2a52.754,52.754,0,0,0-4.055,3.622c3.153-.439,2.6-1.862,5.671-3.96l.477-.373c-.61-2.133-.265-3.181-.741-5.483-2.174-.17-2.863,1.321-2.994,3.994Zm8.294,25.251.742,2.031c-.742,1.253-1.14.778-1.272,2.742,1.113-.439,1.934-1.117,3.153-1.557,2.279-.846,2.174.406,2.968-2.336-2.332.3-3.445,1.016-4.319-1.354,0-.034-.265-1.048,1.086-.777,1.192.27-.026.067,1.192,1.15,1.431-4.061-2.04-4.2-3.551.1ZM-1.6,408.067c-1.271,1.218-1.033.338-1.51,2.64,1.51-.576,1.988-1.219,3.5-1.693,2.067-.677,2.359.1,2.942-1.928-1.67-1.49-3.631,1.794-4.664-2.708,2.226-.441,3.789,2.674,2.649-1.963-1.43-.3-2.278.135-3.259,1.659-1.193,1.895-.318,2.369.344,3.994Zm14.417,4.264c-1.749,3.385-.424,9.14-.027,13.066.292,2.877.716,11.035,1.511,12.828,1.564-5.009-1.351-25.623-1.484-25.894ZM-45.3,438.091c1.616-2.674.768-8.97.451-12.693-.371-4.57-.768-11.576-1.537-13.1-1.14,4.976-.556,7.175-.027,12.625.239,2.471.689,11.847,1.113,13.167ZM.277,412.2c-2.067,2.911-.875,8.6-.477,12.964.291,3.351.265,10.8,1.351,13.1C2.609,432.2.7,419.305.277,412.2Zm-59.122,10.358c-1.59,2.843.212,5.044-.026,8.192-.159,2.1-3.26,3.384-6.546,2.166l-.874-.2-.079,3.283c3.975,1.389,5.723.035,7.976-2.707,1.378,2.5,2.093,6.837,5.777,4.6,4.028-2.539.238-17.4.345-21.9a11.021,11.021,0,0,1,.212-1.828l.079-.406c0-.136.026-.271.026-.406.026-1.185-.61-1.93-1.325-3.893-1.856,2.268-.822,2.978.026,9.917.451,3.723.9,7.819,1.272,11.644.238,2.505.741,4.029-1.405,4.333-4.611.711-4.4-7.278-5.459-12.795Zm-24.407-4.1c1.033-1.456,2.12-1.828,3.71-2.775,1.326-.779,2.65-1.659,3.923-2.4,1.484-.88,2.544-1.524,4-2.3,2.332-1.286,2.252-.711,2.782-3.926-2.967,1.05-7.313,3.859-10.017,5.551-2.7,1.727-7.685,4.7-5.141,9.884.477.779,6.811,3.317,7.658,10.8-1.51,1.591-3.948,1.963-6.439,2-3.763.1-3.816-.541-6.2-1.963-1.325,2.945-.185,2.945,1.272,4.942-1.644,7.041-5.221,8.664-11.661,9.41,1.59,2.572,11.024,4.028,12.64-9.444,5.142.271,12.588.61,11.184-7.717-.637-3.825-3.18-7.209-5.353-9.511a16,16,0,0,1-2.359-2.539Zm74.015,14.487c-.292-.947.079-2.437.026-4.467a7.254,7.254,0,0,1,3.683,4.738,3.791,3.791,0,0,1-3.71-.271Zm-4.744-1.421c.186-2.336.557-3.114,2.015-3.758a3.4,3.4,0,0,1,1.855,3.081c-1.7,2.437-1.961,1.456-3.869.677Zm-6.783,5.788c3.9,2.031,4.929.981,7.844-1.321,2.226-1.725,5.619,2.234,7.447-.3,4.186-5.889-5.645-13.1-7.9-13.573-1.086,3.927.451,2.539-.9,6.262-1.113,3.149-.318,4.1-.637,6.127-9.2,5.518-5.723-14.149-8.135-20.343-1.749,4.434,1.14,23.389,1.431,29.719-.955.779-4.134,5.247-8.454,3.216-3.948-1.862-2.756-5.991-2.093-10.8-3.366,5.246-2.6,13.843,3.551,14.317a6.8,6.8,0,0,0,6.572-3.452c1.616-2.776,1.378-5.924,1.272-9.85Zm91.717-10.223c1.378.17,1.378.406,1.855,1.9-1.219.845-1.431.947-2.677,0,.266-1.76.107-1.083.822-1.9Zm-45,8.225c-1.67-9.308-5.751-3.113-5.724,0,.026,3.081,2.252,3.081,4.585,3.047a12.907,12.907,0,0,1-3.869,7.345c-2.835,2.369-6.042,1.456-7.605,2.471,1.96,2.166,7.234,1.422,8.957-.271,2.12-2.1,2.835-5.618,3.63-9.579,5.115-.033,4.8-.406,6.943-4.467,1.245,4.264,2.518,4.569,6.652,4.467a22.725,22.725,0,0,0,9.01-1.928c4.372-2.1,1.033,2.91,7.234-.17.8-.373-.265-.88,1.59-.068.742.339,1.113.88,2.014,1.118,2.465.609,2.2-.948,3.446-2.505.768,2.031,1.616,3.317,4.16,3.52,12.826,1.185,7.1-13.438,5.406-14.217-2.12-.947-3.816,3.522-3.339,6.127.927,5.077,4.77.711,4.8.711.768,6.195-7.977,4.57-9.169,3.385-1.326-1.286-.822-2.369-1.537-4.1-.9,1.286-1.007,2.268-1.59,4.1-.875.068-2.412-.033-2.994-.642-.8-.847-.53.3-.079-3.284-1.935,1.185-1.378,4.164-6.546,3.351l.8-3.588c-2.015,2-1.644,3.521-7.129,4.536-2.332.439-8.32,1.218-10.228,0-3.524-2.2-2.465-17.669-3.975-22.949-1.856,2.437-.107,11.035.211,14.826.61,7.548.875,8.7-5.644,8.766Z" transform="translate(199.788 0.784)" fill="#e2bc79" fill-rule="evenodd"/></g></svg>