<svg xmlns="http://www.w3.org/2000/svg" width="28" height="28" viewBox="0 0 28 28"><g transform="translate(-154 -499)"><rect width="28" height="28" transform="translate(154 499)" fill="" opacity="0"/><path d="M1636.04,2911.287a.754.754,0,0,1,0,1.066l-8.571,8.563a6.664,6.664,0,0,1-4.584,2.192,4.432,4.432,0,0,1-1.155-.151,4.355,4.355,0,0,1-3.081-3.141,6.018,6.018,0,0,1,1.921-5.8l9.551-9.542a3.444,3.444,0,0,1,4.953.184,3.281,3.281,0,0,1,.078,4.845l-9.632,9.623c-1.277,1.275-2.7,1.182-3.456.43s-.828-2.163.448-3.437l6.515-6.509a.754.754,0,0,1,1.066,1.067l-6.515,6.509c-.569.569-.655,1.1-.447,1.3s.753.138,1.323-.431l9.632-9.623a1.81,1.81,0,0,0-.079-2.712,1.932,1.932,0,0,0-2.82-.183l-9.551,9.542a4.563,4.563,0,0,0-1.531,4.338,2.864,2.864,0,0,0,2.016,2.074c1.335.359,2.856-.228,4.282-1.652l8.571-8.563a.754.754,0,0,1,1.066,0Z" transform="translate(-1460.173 -2400.416)" fill="#c7a76e"/></g></svg>