<svg xmlns="http://www.w3.org/2000/svg" width="28" height="28" viewBox="0 0 28 28"><g transform="translate(-118 -331)"><rect width="28" height="28" transform="translate(118 331)" fill="#e2bc79" opacity="0"/><g transform="translate(122.092 335.092)"><path d="M959.537,5201.989a9.908,9.908,0,1,1-9.908-9.908A9.919,9.919,0,0,1,959.537,5201.989Zm-1.723,0a8.185,8.185,0,1,0-8.185,8.185A8.194,8.194,0,0,0,957.814,5201.989Z" transform="translate(-939.722 -5192.081)" fill="#e2bc79"/><path d="M977.243,5216.625a2.694,2.694,0,0,0-2.691-2.691h-1.034a.968.968,0,1,1,0-1.936.828.828,0,0,0,.21-.029l.336,0a.876.876,0,0,0,.1.009h.013a.81.81,0,0,0,.109-.012l2.113-.03a.862.862,0,0,0-.024-1.723l-1.362.019-.014-.975a.862.862,0,1,0-1.723.024l.014.982a.848.848,0,0,0-.242.06,2.689,2.689,0,0,0,.458,5.337h1.051a.968.968,0,1,1,0,1.936.848.848,0,0,0-.213.03l-.145,0c-.025,0-.049-.007-.074-.007s-.052.006-.078.009l-2.366.034a.862.862,0,0,0,.012,1.723h.012l1.583-.022.014.978a.862.862,0,0,0,.861.85h.013a.862.862,0,0,0,.849-.874l-.015-1.04A2.693,2.693,0,0,0,977.243,5216.625Z" transform="translate(-964.127 -5204.889)" fill="#e2bc79"/></g></g></svg>