<svg xmlns="http://www.w3.org/2000/svg" width="28" height="28" viewBox="0 0 28 28">
  <g id="Group_9686" data-name="Group 9686" transform="translate(-105 -459)">
    <rect id="Rectangle_885" data-name="Rectangle 885" width="28" height="28" transform="translate(105 459)" fill="#fff" opacity="0"/>
    <path id="Path_430" data-name="Path 430" d="M950.7,5372.942a.862.862,0,0,0-.928-.191l-17.535,6.969a.861.861,0,0,0-.047,1.581l6.84,3.2,3.313,6.957a.861.861,0,0,0,.778.491h.029a.862.862,0,0,0,.772-.543l6.969-17.535A.861.861,0,0,0,950.7,5372.942Zm-7.65,15.991-2.335-4.9,3.006-3.006a.861.861,0,0,0-1.218-1.218l-3.009,3.009-4.767-2.229,13.826-5.5Z" transform="translate(-822.692 -4908.69)" fill="#fff"/>
  </g>
</svg>
