<svg xmlns="http://www.w3.org/2000/svg" width="28" height="28" viewBox="0 0 28 28"><g transform="translate(-118 -515)"><rect width="28" height="28" transform="translate(118 515)" fill="#bbb" opacity="0"/><path d="M2512.327,2030.9a.754.754,0,0,1-.74-.9l1.061-5.387-.584.329a.754.754,0,0,1-.74-1.314l2.01-1.133a.754.754,0,0,1,1.11.8l-1.1,5.581.9-.393a.754.754,0,1,1,.6,1.382l-2.22.967A.755.755,0,0,1,2512.327,2030.9Zm2.14-10.287a1.074,1.074,0,1,0-.762.317A1.083,1.083,0,0,0,2514.467,2020.611Zm8.348,4.3a9.908,9.908,0,1,0-9.908,9.908A9.919,9.919,0,0,0,2522.815,2024.908Zm-1.723,0a8.185,8.185,0,1,1-8.185-8.185A8.194,8.194,0,0,1,2521.092,2024.908Z" transform="translate(-2380.908 -1495.908)" fill="#e2bc79"/></g></svg>