<svg xmlns="http://www.w3.org/2000/svg" width="28" height="28" viewBox="-5 -4 28 28">
  <path id="Path_428" data-name="Path 428" d="M961.19,5001.281a4.95,4.95,0,0,0-4.019,7.844l-4.118,4.236a.9.9,0,0,0-.108.091.879.879,0,0,0-.087.11l-2.277,2.343a.942.942,0,0,0,.017,1.277l3.366,3.272a.862.862,0,0,0,1.2-1.236l-2.777-2.7,1.2-1.238,2.738,2.662a.862.862,0,0,0,1.2-1.236l-2.738-2.662,3.613-3.717a4.953,4.953,0,1,0,2.786-9.047Zm0,8.185a3.231,3.231,0,1,1,3.231-3.231A3.234,3.234,0,0,1,961.19,5009.465Z" transform="translate(-950.338 -5001.281)" fill="#a3adb7"/>
</svg>
