<svg xmlns="http://www.w3.org/2000/svg" width="28" height="28" viewBox="0 0 28 28">
  <g id="Group_10103" data-name="Group 10103" transform="translate(-3782 -2828)">
 
    <path id="Path_511" data-name="Path 511" d="M2077.944,1584.8h-8.391v-1.981a.982.982,0,0,0-.826-.819h-9.075c-.361,0-.653.46-.653.819v5.507a.776.776,0,0,0,.653.781h1.307l1.721,1.869a.624.624,0,0,0,.489.187.468.468,0,0,0,.189-.059.635.635,0,0,0,.379-.624v-1.373h1.292v4a1.038,1.038,0,0,0,.969.956h5.923v2.62a.833.833,0,0,0,.506.8.782.782,0,0,0,.308.063.813.813,0,0,0,.616-.219l3.218-3.268h1.373a.949.949,0,0,0,.871-.956v-7.248C2078.815,1585.379,2078.425,1584.8,2077.944,1584.8Zm-14.773,3.015c-.361,0-.725.152-.725.511v.439l-.738-.8a.528.528,0,0,0-.454-.15h-.962v-4.523h7.754v1.508H2066a1.139,1.139,0,0,0-.969,1.058v1.958Zm13.921,4.523h-.89a.769.769,0,0,0-.6.214l-1.959,1.991v-1.437a.841.841,0,0,0-.928-.767h-5.964v-5.815h10.338Zm-9.095-3.877a.648.648,0,0,1,.653-.646h4.117a.646.646,0,1,1,0,1.292h-4.117A.648.648,0,0,1,2068,1588.462Zm6.267.444a.648.648,0,0,1,0-.921.681.681,0,0,1,.923,0,.651.651,0,0,1-.462,1.111A.661.661,0,0,1,2074.264,1588.906Z" transform="translate(1727.092 1252.246)" fill="#a3adb7"/>
  </g>
</svg>
