<svg xmlns="http://www.w3.org/2000/svg" width="28" height="28" viewBox="2 0 28 28">
  <g id="Group_9937" data-name="Group 9937" transform="translate(-105 -392)">
    <path id="Path_434" data-name="Path 434" d="M2083.943,1128.71a7.692,7.692,0,0,0-9.67,0,7.522,7.522,0,0,0-2.272,5.825c0,5.414,6.231,11.759,6.5,12.026a.861.861,0,0,0,1.223,0c.265-.267,6.5-6.612,6.5-12.026A7.522,7.522,0,0,0,2083.943,1128.71Zm-4.836,15.981a33.283,33.283,0,0,1-2.418-3.022c-1.94-2.752-2.966-5.218-2.966-7.134,0-5.392,4.121-5.811,5.385-5.811,5,0,5.385,4.448,5.385,5.811C2084.492,1138.327,2080.634,1142.993,2079.107,1144.691Zm0-13.975a3.484,3.484,0,1,0,3.429,3.483A3.46,3.46,0,0,0,2079.108,1130.716Zm0,5.459a1.976,1.976,0,1,1,1.922-1.976A1.951,1.951,0,0,1,2079.108,1136.175Z" transform="translate(-1960.108 -730.908)" fill="#a3adb7"/>
  </g>
</svg>
