<svg xmlns="http://www.w3.org/2000/svg" width="38" height="38" viewBox="0 0 38 38">
  <g id="Group_10223" data-name="Group 10223" transform="translate(-295 -719)">
    <rect id="Rectangle" width="38" height="38" rx="19" transform="translate(295 719)" fill="#c7a76e"/>
    <g id="ic_microphone-small" transform="translate(300 724)">
      <rect id="Rectangle_885" data-name="Rectangle 885" width="28" height="28" fill="#fff" opacity="0"/>
      <g id="Group_10222" data-name="Group 10222" transform="translate(6.374 3.609)">
        <path id="Path_503" data-name="Path 503" d="M149.9,14.029a3.5,3.5,0,0,0,2.628-1.144,3.843,3.843,0,0,0,1.093-2.752V3.9a3.843,3.843,0,0,0-1.093-2.752,3.588,3.588,0,0,0-5.255,0A3.843,3.843,0,0,0,146.179,3.9v6.235a3.843,3.843,0,0,0,1.093,2.752A3.5,3.5,0,0,0,149.9,14.029Z" transform="translate(-142.273)" fill="none" stroke="#fff" stroke-width="1.8"/>
        <path id="Path_504" data-name="Path 504" d="M88.087,182.988a.805.805,0,0,0-1.191,0,.874.874,0,0,0-.251.624v1.775a6.128,6.128,0,0,1-1.741,4.389,5.726,5.726,0,0,1-8.38,0,6.127,6.127,0,0,1-1.741-4.389v-1.775a.873.873,0,0,0-.252-.624.805.805,0,0,0-1.192,0,.873.873,0,0,0-.252.624v1.775a7.911,7.911,0,0,0,1.953,5.332,7.288,7.288,0,0,0,4.826,2.6v1.831H76.476a.8.8,0,0,0-.6.264.9.9,0,0,0,0,1.248.8.8,0,0,0,.6.264h8.473a.8.8,0,0,0,.6-.264.9.9,0,0,0,0-1.248.8.8,0,0,0-.6-.264H81.56v-1.831a7.289,7.289,0,0,0,4.825-2.6,7.91,7.91,0,0,0,1.953-5.332v-1.775A.873.873,0,0,0,88.087,182.988Z" transform="translate(-73.087 -174.822)" fill="#fff"/>
      </g>
    </g>
  </g>
</svg>
