<svg xmlns="http://www.w3.org/2000/svg" width="28" height="28" viewBox="0 0 28 28"><g transform="translate(-188 -600)"><rect width="28" height="28" transform="translate(188 600)" fill="#bbb" opacity="0"/><path d="M1414.258,3140.353c-1.449,0-2.01-.85-2.01-6.118,0-4.131-1.872-6.726-5.1-7.111v-1.317a.862.862,0,1,0-1.723,0v1.292c-3.446.28-5.442,2.9-5.442,7.136,0,5.268-.629,6.118-2.079,6.118a.828.828,0,0,0-.874.809.809.809,0,0,0,.851.809h5.6a3.514,3.514,0,0,0,.784,2.013,2.345,2.345,0,0,0,1.765.773,2.408,2.408,0,0,0,1.771-.777,3.577,3.577,0,0,0,.842-2.009h5.615a.811.811,0,1,0,0-1.618Zm-7.711,2.456a.646.646,0,0,1-.517.222.6.6,0,0,1-.492-.224,1.351,1.351,0,0,1-.317-.836h.724a.87.87,0,0,1,.247,0h.7A1.362,1.362,0,0,1,1406.547,3142.809Zm-.355-2.561a.87.87,0,0,1-.247,0h-5.091c.8-1.508.8-3.853.8-6.048,0-3.507,1.523-5.367,4.287-5.367h.247c2.764,0,4.286,1.861,4.286,5.367,0,2.195,0,4.54.8,6.048Zm3.074-7.642a.754.754,0,0,1-.708.8h-.045a.754.754,0,0,1-.752-.71,1.574,1.574,0,0,0-.9-1.355.759.759,0,0,1-.4-.986.75.75,0,0,1,.973-.411A3.111,3.111,0,0,1,1409.266,3132.605Z" transform="translate(-1204.074 -2520.851)" fill="#e2bc79"/></g></svg>