<svg xmlns="http://www.w3.org/2000/svg" width="100" height="100" viewBox="0 0 100 100"><g transform="translate(-295 -719)"><rect width="100" height="100" rx="50" transform="translate(295 719)" fill="#c7a76e"/><g transform="translate(308.158 732.158)"><rect width="73.684" height="73.684" transform="translate(0 0)" fill="#fff" opacity="0"/><path d="M981.708,5373.354a2.267,2.267,0,0,0-2.441-.5l-46.146,18.34a2.266,2.266,0,0,0-.123,4.159l18,8.419,8.72,18.309a2.267,2.267,0,0,0,2.046,1.292h.076a2.267,2.267,0,0,0,2.032-1.429l18.34-46.146A2.266,2.266,0,0,0,981.708,5373.354Zm-20.132,42.082-6.146-12.906,7.911-7.91a2.267,2.267,0,0,0-3.207-3.205l-7.919,7.918-12.544-5.867L976.056,5379Z" transform="translate(-921.165 -5359.533)" fill="#fff"/></g></g></svg>