<svg xmlns="http://www.w3.org/2000/svg" width="28" height="28" viewBox="0 0 28 28"><g transform="translate(-172 -429)"><rect width="28" height="28" transform="translate(172 429)" fill="#bbb" opacity="0"/><path d="M971.369,2026.723H955.862a.862.862,0,0,1,0-1.723h15.508a.862.862,0,0,1,0,1.723Zm-5.731,3.743a.861.861,0,0,0-.862-.862h-8.915a.862.862,0,0,0,0,1.723h8.915A.862.862,0,0,0,965.638,2030.466Zm2.63,4.59a.862.862,0,0,0-.862-.862H955.862a.862.862,0,0,0,0,1.723h11.545A.862.862,0,0,0,968.268,2035.056Zm3.188,4.59a.862.862,0,0,0-.862-.862H955.919a.862.862,0,1,0,0,1.723h14.675A.862.862,0,0,0,971.456,2039.646Z" transform="translate(-777.615 -1589.754)" fill="#e2bc79"/></g></svg>