<svg xmlns="http://www.w3.org/2000/svg" width="28" height="28" viewBox="0 0 28 28">
  <g id="Group_9597" data-name="Group 9597" transform="translate(-3723 -1420)">
    <rect id="Rectangle_859" data-name="Rectangle 859" width="28" height="28" transform="translate(3723 1420)" fill="#fff" opacity="0"/>
    <path id="Path_408" data-name="Path 408" d="M736.909,2917.651a5.825,5.825,0,1,0-5.8-5.826A5.819,5.819,0,0,0,736.909,2917.651Zm0-9.928a4.1,4.1,0,1,1-4.076,4.1A4.094,4.094,0,0,1,736.909,2907.723Zm2.685,10.5a.86.86,0,0,0-.82.164l-1.865,1.586-1.865-1.586a.86.86,0,0,0-.82-.164c-1.206.385-7.223,2.455-7.223,5.44a.862.862,0,0,0,.862.861h18.092a.862.862,0,0,0,.862-.861C746.816,2920.677,740.8,2918.606,739.594,2918.221Zm-10.417,4.579a15.032,15.032,0,0,1,5.122-2.787l2.053,1.746a.862.862,0,0,0,1.116,0l2.053-1.746a15.032,15.032,0,0,1,5.122,2.787Z" transform="translate(3000.091 -1481.262)" fill="#a3adb7"/>
  </g>
</svg>
