<svg xmlns="http://www.w3.org/2000/svg" width="28" height="28" viewBox="0 -8 28 28">
  <path id="Path_427" data-name="Path 427" d="M2522.813,1590.843a.843.843,0,0,0-.01-.1c0-.025-.005-.05-.01-.074s-.016-.054-.025-.081a.851.851,0,0,0-.028-.081c-.01-.022-.023-.043-.035-.065a.882.882,0,0,0-.049-.083c0-.005-.006-.011-.01-.016s-.026-.028-.039-.043-.04-.047-.062-.068-.043-.036-.065-.053-.043-.034-.066-.049-.05-.028-.075-.041-.048-.025-.074-.035-.054-.018-.083-.026-.051-.014-.078-.019a.86.86,0,0,0-.1-.009c-.019,0-.036-.006-.055-.006h-18.092c-.019,0-.037,0-.056.006s-.063,0-.094.009-.052.012-.078.019-.055.015-.082.025a.8.8,0,0,0-.074.035.851.851,0,0,0-.075.041c-.023.015-.045.032-.066.049s-.044.034-.065.053-.042.045-.062.068-.027.027-.039.043-.006.011-.01.016a.852.852,0,0,0-.049.083c-.012.022-.025.043-.035.065a.823.823,0,0,0-.028.08c-.009.027-.019.053-.025.081s-.007.049-.01.074a.844.844,0,0,0-.01.1c0,.006,0,.012,0,.019v9.908a.862.862,0,0,0,.862.861h18.092a.862.862,0,0,0,.862-.861v-9.908C2522.815,1590.855,2522.814,1590.849,2522.813,1590.843Zm-3.465.88-6.441,4.782-6.441-4.782Zm-14.625,8.185v-7.333l7.671,5.7a.861.861,0,0,0,1.027,0l7.671-5.7v7.333Z" transform="translate(-2503 -1590)" fill="#a3adb7"/>
</svg>
