<?xml version="1.0" encoding="UTF-8"?>
<svg xmlns="http://www.w3.org/2000/svg" xmlns:xlink="http://www.w3.org/1999/xlink" width="120pt" height="120pt" viewBox="0 0 120 120" version="1.1">
<g id="surface1">
<path style=" stroke:none;fill-rule:nonzero;fill:#e2bc79;fill-opacity:1;" d="M 50.640625 9.441406 C 44.199219 10.601562 37 13.558594 31.078125 17.480469 C 27.359375 19.921875 19.878906 27.398438 17.519531 31 C 13.480469 37.160156 10.601562 44.28125 9.398438 50.960938 C 8.601562 55.558594 8.601562 64.441406 9.398438 69.039062 C 11.121094 78.761719 15.761719 87.921875 22.761719 95.28125 C 29.71875 102.601562 37.558594 107.199219 47.761719 109.921875 C 51.519531 110.921875 52.359375 111 60 111 C 67.601562 111 68.519531 110.921875 72.28125 109.921875 C 82.199219 107.320312 90.320312 102.601562 97.238281 95.28125 C 104.320312 87.839844 108.878906 78.839844 110.601562 68.921875 C 111.398438 64.441406 111.359375 55.480469 110.601562 50.960938 C 109.398438 44.238281 106.519531 37.160156 102.519531 31.039062 C 100.078125 27.359375 92.601562 19.878906 88.921875 17.480469 C 82.71875 13.398438 75.839844 10.601562 68.921875 9.398438 C 64.601562 8.640625 54.921875 8.679688 50.640625 9.441406 Z M 71.320312 14.160156 C 79.878906 16.359375 86.398438 20.078125 92.839844 26.398438 C 103 36.359375 107.761719 48.441406 107.078125 62.519531 C 106.558594 73.558594 102.039062 84.121094 94.398438 92.121094 L 91.558594 95.121094 L 82.359375 90.480469 C 75.199219 86.878906 73 85.558594 72.558594 84.71875 C 72.238281 84.078125 72 82.441406 72 80.601562 C 72 77.71875 72.078125 77.441406 73.558594 75.28125 C 75.199219 72.839844 76.921875 69.640625 77.398438 68 C 77.558594 67.441406 78.480469 66.28125 79.398438 65.398438 C 81.640625 63.320312 82.121094 61.480469 81.921875 56 C 81.839844 53.078125 81.558594 51.398438 81.078125 50.441406 C 80.558594 49.359375 80.398438 48 80.398438 44 C 80.398438 37.800781 79.878906 34.878906 78.28125 31.878906 C 75.359375 26.359375 69.320312 23.601562 60 23.601562 C 50.679688 23.601562 44.640625 26.359375 41.71875 31.878906 C 40.121094 34.878906 39.601562 37.800781 39.601562 44 C 39.601562 48 39.441406 49.359375 38.921875 50.441406 C 38.441406 51.398438 38.160156 53.078125 38.078125 56 C 37.921875 60.679688 38.359375 63 39.761719 64.679688 C 40.28125 65.28125 41.078125 67 41.558594 68.480469 C 42.039062 69.960938 43.359375 72.640625 44.441406 74.480469 L 46.480469 77.800781 L 46.320312 81.039062 C 46.238281 83.558594 46.039062 84.519531 45.441406 85.121094 C 45.039062 85.601562 41 87.960938 36.480469 90.441406 L 28.238281 94.921875 L 25.480469 92.039062 C 20.320312 86.601562 16.238281 79.160156 14.121094 71.320312 C 13.121094 67.71875 13.039062 66.761719 13.039062 60 C 13.078125 53.28125 13.160156 52.238281 14.121094 48.679688 C 16.441406 40.039062 20.121094 33.601562 26.398438 27.160156 C 33.761719 19.640625 41.800781 15.320312 52.078125 13.359375 C 56.800781 12.480469 66.441406 12.878906 71.320312 14.160156 Z M 71.320312 14.160156 "/>
</g>
</svg>
