<svg xmlns="http://www.w3.org/2000/svg" width="28" height="28" viewBox="0 0 28 28"><g transform="translate(-112 -621)"><rect width="28" height="28" transform="translate(112 621)" fill="#bbb" opacity="0"/><path d="M1859.452,3791a6.52,6.52,0,0,0-6.464,6.531,5.912,5.912,0,0,0,2.587,5.145v2.111a.931.931,0,0,0,.919.862l.079,0,5.925-.477a.9.9,0,0,0,.83-.859v-1.62a6.39,6.39,0,0,0,2.583-5.159A6.517,6.517,0,0,0,1859.452,3791Zm2.575,10.441a.834.834,0,0,0-.421.76v1.314l-4.308.338V3802.2a.83.83,0,0,0-.388-.744,4.206,4.206,0,0,1-2.186-3.926,4.726,4.726,0,1,1,9.45,0A4.284,4.284,0,0,1,1862.027,3801.441Zm1.224,5.561a.86.86,0,0,1-.792.922l-5.883.43-.063,0a.862.862,0,0,1-.061-1.721l5.883-.43A.858.858,0,0,1,1863.252,3807Zm-1.874,2.72a.86.86,0,0,1-.788.925l-2.134.165-.067,0a.862.862,0,0,1-.065-1.72l2.135-.166A.859.859,0,0,1,1861.377,3809.722Zm1.508-12.207a.751.751,0,0,1-.745.681q-.037,0-.074,0a.753.753,0,0,1-.673-.823,1.655,1.655,0,0,0-1.08-1.717.758.758,0,0,1-.448-.963.746.746,0,0,1,.949-.458A3.162,3.162,0,0,1,1862.885,3797.515Z" transform="translate(-1733.45 -3165.908)" fill="#bbb"/></g></svg>