<svg xmlns="http://www.w3.org/2000/svg" width="28" height="28" viewBox="0 0 28 28">
  <g id="Group_9640" data-name="Group 9640" transform="translate(-98 -271)">
    <rect id="Rectangle_873" data-name="Rectangle 873" width="28" height="28" transform="translate(98 271)" fill="rgba(255,255,255,0.6)" opacity="0"/>
    <path id="Path_419" data-name="Path 419" d="M958.418,1351.25a6.762,6.762,0,0,1,5.254,10.9l4.323,4.413a.964.964,0,1,1-1.372,1.353l-4.334-4.424a6.575,6.575,0,0,1-3.87,1.259,6.751,6.751,0,0,1,0-13.5Zm0,11.788a5.038,5.038,0,1,0-4.955-5.037A5,5,0,0,0,958.418,1363.038Z" transform="translate(-848.011 -1074.727)" fill="#fff"/>
  </g>
</svg>
