<svg xmlns="http://www.w3.org/2000/svg" width="20.421" height="22.943" viewBox="0 0 20.421 22.943">
  <path id="Path_437" data-name="Path 437" d="M1863.2,1574.06l-1.81-1.835a.757.757,0,0,0-.538-.225h0a.758.758,0,0,0-.539.226l-10.555,10.715a.763.763,0,0,0-.166.255l-1.175,3.005a.757.757,0,0,0,.983.979l2.975-1.18a.76.76,0,0,0,.26-.172l10.565-10.7A.756.756,0,0,0,1863.2,1574.06Zm-11.53,10.592-1.211.48.485-1.241,9.908-10.058.748.758Zm7.715-.9v10.187a1.045,1.045,0,0,1-1.051,1.008h-14.328a1.009,1.009,0,0,1-1.009-1.008v-19.206a.971.971,0,0,1,1.009-.964h10.481a1.008,1.008,0,0,1,0,2.017h-9.473v17.144h12.354v-9.178a1.008,1.008,0,1,1,2.017,0Z" transform="translate(-1843 -1572)" fill="#fff"/>
</svg>
