<svg xmlns="http://www.w3.org/2000/svg" width="120" height="120.028" viewBox="0 0 120 120.028"><g transform="translate(-53 -135)"><rect width="120" height="120" rx="60" transform="translate(53 135)" fill="#fff"/><path d="M11.155,418.294a27.485,27.485,0,0,0,13.732-23.807A27.474,27.474,0,0,0-2.6,367a27.489,27.489,0,0,0-27.487,27.487,27.464,27.464,0,0,0,13.351,23.56c.313-.157.628-.336.9-.471a1.26,1.26,0,0,1,1.392.112c6.462,5.071,17.233,5.52,23.695.449a1.3,1.3,0,0,1,1.414-.112l.067.022Z" transform="translate(115.6 -199.465)" fill="#3a6cc1" fill-rule="evenodd"/><path d="M.219,419.6c5,0,16.806-6.014,16.806-20.464,0-11.331-1.525-20.487-16.806-20.487-15.258,0-16.784,9.155-16.784,20.487,0,14.45,11.78,20.464,16.784,20.464Zm-14.271-23.9c1.167-2.266,3.725-4.914,9.2-4.8,0,0,3.276,7.943,19.342,4.375.067,1.279.09,2.558.09,3.86A18.3,18.3,0,0,1,8.835,413c-3.3,3.052-6.956,4.151-8.616,4.151S-5.1,416.055-8.4,413a18.373,18.373,0,0,1-5.722-13.867c0-1.145,0-2.289.067-3.433Z" transform="translate(112.782 -201.893)" fill="#fff" fill-rule="evenodd"/><path d="M30,457.438c-.92-5.812-1.526-13.777-5.385-16.447-2.626-1.817-11.4-3.591-15.326-5.7l-.067-.023a1.26,1.26,0,0,0-1.391.112C1.372,440.451-9.4,440-15.883,434.932a1.256,1.256,0,0,0-1.391-.112c-3.882,2.064-13.194,4.847-15.819,6.62-4.443,2.984-4.567,14.6-4.9,16.735,17.325,13.98,51.526,14.051,68-.736Zm-13.687-.427-5.835,2.715-5.811-2.715V446.69H16.316Z" transform="translate(117.26 -213.567)" fill="#e2bc79" fill-rule="evenodd"/><path d="M25.27,458.643v-5.385h-6.26v5.385l3.141,1.817Z" transform="translate(105.367 -217.443)" fill="#3a6cc1" fill-rule="evenodd"/><path d="M-46.614,424.357c-.56-.516-1.077-1.01-1.593-1.526A52.077,52.077,0,0,1-63.33,389.376a52.059,52.059,0,0,1,10.591-35.228,56,56,0,0,1,4.6-5.228,52.16,52.16,0,0,1,36.978-15.326,52.212,52.212,0,0,1,37,15.326,52.708,52.708,0,0,1,4.578,5.228,52.168,52.168,0,0,1,10.613,35.228,52.215,52.215,0,0,1-15.146,33.455c-.449.449-.92.9-1.392,1.346a64.944,64.944,0,0,1,1.661,8.707,60.341,60.341,0,0,0,14.966-17.5A59.772,59.772,0,0,0,48.839,385.9,59.828,59.828,0,0,0,31.27,343.467,59.789,59.789,0,0,0-11.161,325.9a59.826,59.826,0,0,0-42.431,17.569A59.828,59.828,0,0,0-71.161,385.9a59.773,59.773,0,0,0,7.719,29.484A60.577,60.577,0,0,0-48.049,433.22a47.967,47.967,0,0,1,1.436-8.863Z" transform="translate(124.161 -190.898)" fill="#78b2fe" fill-rule="evenodd"/><path d="M-38.018,359.038c-.4.4-.807.83-1.234,1.279A42.039,42.039,0,0,0-50.36,389.8a42.073,42.073,0,0,0,10.1,26.5c.4.494,1.3,1.639,1.728,2.11a10.622,10.622,0,0,0-3.994,5.161c-.807-.808-2.019-2.334-2.759-3.187a48.663,48.663,0,0,1-11.489-29.057A48.548,48.548,0,0,1-45.872,358.1c1.032-1.234,2.109-2.446,3.3-3.613A48.456,48.456,0,0,1-8.916,340.235l.135-.022h1.234a3.051,3.051,0,0,0,.449.022h.023a48.5,48.5,0,0,1,33.32,14.248c1.167,1.167,2.266,2.379,3.276,3.613a48.437,48.437,0,0,1,10.9,33.231,48.524,48.524,0,0,1-11.488,29.057c-.718.853-1.952,2.379-2.76,3.187a10.364,10.364,0,0,0-3.993-5.161c.448-.471,1.324-1.616,1.75-2.11a42.168,42.168,0,0,0,10.074-26.5A41.939,41.939,0,0,0,22.9,360.317c-.4-.449-.83-.875-1.234-1.279A42.044,42.044,0,0,0-7.615,346.675h-1.1a42.054,42.054,0,0,0-29.3,12.364Z" transform="translate(121.176 -193.882)" fill="#3a6cc1" fill-rule="evenodd"/><path d="M30.444,419.857c.112-.112.247-.224.359-.359.269-.225.516-.472.763-.718a38.577,38.577,0,0,0,11.152-24.7,38.358,38.358,0,0,0-7.853-25.983,38.1,38.1,0,0,0-3.344-3.815A38.467,38.467,0,0,0,4.236,352.968l-1.526.045.09,7.562,1.436-.022a30.884,30.884,0,0,1,21.922,9.087c.516.516,1.01,1.032,1.481,1.593A30.821,30.821,0,0,1,35.2,392.639a30.892,30.892,0,0,1-5.543,16.649c-2.445,3.478-4.869,5.273-7.988,7.719,2.895.988,6.283,1.93,8.773,2.85Z" transform="translate(108.764 -196.54)" fill="#003b7f" fill-rule="evenodd"/><path d="M20.692,419.857c.112-.112.247-.224.359-.359.269-.225.516-.472.763-.718a38.577,38.577,0,0,0,11.152-24.7,38.358,38.358,0,0,0-7.853-25.983,38.1,38.1,0,0,0-3.344-3.815A38.378,38.378,0,0,0-3.99,353.013h-.022c-.494-.022-1.01-.045-1.5-.045h0c-.494,0-.987.023-1.5.045h-.023a38.282,38.282,0,0,0-25.736,11.264,35.632,35.632,0,0,0-3.366,3.815A38.47,38.47,0,0,0-44,394.075a38.488,38.488,0,0,0,11.174,24.7c.225.246.494.493.741.718.112.135.246.247.359.359,2.491-.92,5.879-1.862,8.774-2.85-3.1-2.445-5.543-4.24-7.966-7.719a31.1,31.1,0,0,1-5.565-16.649,30.824,30.824,0,0,1,7.561-21.406c.472-.561.988-1.077,1.5-1.593A30.905,30.905,0,0,1-6.93,360.575l1.414-.022,1.414.022a31.006,31.006,0,0,1,20.508,9.065c.516.516,1.01,1.032,1.481,1.593a30.821,30.821,0,0,1,7.562,21.406,30.892,30.892,0,0,1-5.543,16.649c-2.445,3.478-4.869,5.273-7.988,7.719,2.895.988,6.283,1.93,8.773,2.85Z" transform="translate(118.516 -196.54)" fill="#124a91" fill-rule="evenodd"/></g></svg>