<svg xmlns="http://www.w3.org/2000/svg" width="152" height="28" viewBox="0 0 152 28">
  <g id="Group_9980" data-name="Group 9980" transform="translate(-110 -47)">
    <rect id="Rectangle_1_copy_32" data-name="Rectangle 1 copy 32" width="150" height="24" rx="6" transform="translate(112 49)" fill="#fff"/>
    <rect id="Rectangle_1_copy_32-2" data-name="Rectangle 1 copy 32" width="79" height="28" rx="6" transform="translate(110 47)" fill="#e2bc79"/>
    <g id="Group_9674" data-name="Group 9674" transform="translate(100 -305)">
      <rect id="Rectangle_881" data-name="Rectangle 881" width="28" height="28" transform="translate(36 352)" fill="#fff" opacity="0"/>
      <path id="Path_439" data-name="Path 439" d="M2517.4,1590.613a.607.607,0,0,0-.007-.07c0-.018,0-.036-.008-.054s-.012-.039-.018-.059-.012-.04-.021-.058-.017-.031-.026-.047a.575.575,0,0,0-.036-.06s0-.008-.007-.012-.019-.02-.028-.031-.029-.034-.045-.049-.031-.026-.047-.039-.031-.025-.048-.035a.617.617,0,0,0-.054-.03c-.018-.009-.035-.018-.054-.025s-.04-.013-.06-.019-.037-.01-.057-.014a.623.623,0,0,0-.069-.007c-.013,0-.026,0-.04,0h-13.148c-.014,0-.027,0-.041,0s-.046,0-.068.007-.038.009-.057.014-.04.011-.059.019a.575.575,0,0,0-.054.025.616.616,0,0,0-.054.029c-.017.011-.032.023-.048.035s-.032.025-.047.039-.031.033-.045.049-.02.02-.028.031,0,.008-.007.012a.658.658,0,0,0-.036.06c-.009.016-.018.031-.026.047a.6.6,0,0,0-.021.058c-.006.02-.014.039-.018.059s-.005.036-.008.054a.608.608,0,0,0-.007.07s0,.009,0,.014v7.2a.626.626,0,0,0,.626.626h13.148a.626.626,0,0,0,.626-.626v-7.2S2517.4,1590.617,2517.4,1590.613Zm-2.518.64-4.681,3.476-4.681-3.476Zm-10.629,5.948v-5.33l5.575,4.14a.626.626,0,0,0,.747,0l5.575-4.14v5.33Z" transform="translate(-2466.908 -1227.637)" fill="#fff"/>
      <rect id="Rectangle_896" data-name="Rectangle 896" width="12" height="14" transform="translate(42 359)" fill="#e2bc79"/>
      <path id="Path_427" data-name="Path 427" d="M2522.813,1590.843a.843.843,0,0,0-.01-.1c0-.025-.005-.05-.01-.074s-.016-.054-.025-.081a.851.851,0,0,0-.028-.081c-.01-.022-.023-.043-.035-.065a.882.882,0,0,0-.049-.083c0-.005-.006-.011-.01-.016s-.026-.028-.039-.043-.04-.047-.062-.068-.043-.036-.065-.053-.043-.034-.066-.049-.05-.028-.075-.041-.048-.025-.074-.035-.054-.018-.083-.026-.051-.014-.078-.019a.86.86,0,0,0-.1-.009c-.019,0-.036-.006-.055-.006h-18.092c-.019,0-.037,0-.056.006s-.063,0-.094.009-.052.012-.078.019-.055.015-.082.025a.8.8,0,0,0-.074.035.851.851,0,0,0-.075.041c-.023.015-.045.032-.066.049s-.044.034-.065.053-.042.045-.062.068-.027.027-.039.043-.006.011-.01.016a.852.852,0,0,0-.049.083c-.012.022-.025.043-.035.065a.823.823,0,0,0-.028.08c-.009.027-.019.053-.025.081s-.007.049-.01.074a.844.844,0,0,0-.01.1c0,.006,0,.012,0,.019v9.908a.862.862,0,0,0,.862.861h18.092a.862.862,0,0,0,.862-.861v-9.908C2522.815,1590.855,2522.814,1590.849,2522.813,1590.843Zm-3.465.88-6.441,4.782-6.441-4.782Zm-14.625,8.185v-7.333l7.671,5.7a.861.861,0,0,0,1.027,0l7.671-5.7v7.333Z" transform="translate(-2459.908 -1229.815)" fill="#fff"/>
    </g>
    <g id="Group_9979" data-name="Group 9979" transform="translate(-3269 -147)">
      <rect id="Rectangle_903" data-name="Rectangle 903" width="28" height="28" transform="translate(3480 194)" fill="#fff" opacity="0"/>
      <path id="Path_466" data-name="Path 466" d="M2315.589,2035.7a3.3,3.3,0,0,1,.767,2.589,2.622,2.622,0,0,1-2.735,2.469.907.907,0,0,0-.1,0v.46a.758.758,0,0,1-1.517,0v-.611c0-.625.26-1.369,1.619-1.369a1.117,1.117,0,0,0,1.216-1.133,1.819,1.819,0,0,0-.389-1.4,2.222,2.222,0,0,0-1.737-.612c-1.716,0-1.765,1.109-1.765,1.236a.758.758,0,1,1-1.517,0c0-.766.59-2.752,3.282-2.752A3.662,3.662,0,0,1,2315.589,2035.7Zm-2.878,6.925a.948.948,0,1,0,.671.279A.96.96,0,0,0,2312.711,2042.623Z" transform="translate(1188.076 -1831.632)" fill="#001e50"/>
      <path id="Path_467" data-name="Path 467" d="M2315.589,2035.7a3.3,3.3,0,0,1,.767,2.589,2.622,2.622,0,0,1-2.735,2.469.907.907,0,0,0-.1,0v.46a.758.758,0,0,1-1.517,0v-.611c0-.625.26-1.369,1.619-1.369a1.117,1.117,0,0,0,1.216-1.133,1.819,1.819,0,0,0-.389-1.4,2.222,2.222,0,0,0-1.737-.612c-1.716,0-1.765,1.109-1.765,1.236a.758.758,0,1,1-1.517,0c0-.766.59-2.752,3.282-2.752A3.662,3.662,0,0,1,2315.589,2035.7Zm-2.878,6.925a.948.948,0,1,0,.671.279A.96.96,0,0,0,2312.711,2042.623Z" transform="translate(1173.645 -1831.632)" fill="#001e50"/>
      <circle id="Ellipse_20" data-name="Ellipse 20" cx="6.892" cy="6.892" r="6.892" transform="translate(3487.108 198.308)" fill="#fff"/>
      <path id="Path_465" data-name="Path 465" d="M2319.541,2036.418a5.418,5.418,0,0,1,1.258,4.25,4.3,4.3,0,0,1-4.489,4.053,1.445,1.445,0,0,0-.168.005v.756a1.245,1.245,0,0,1-2.49,0v-1c0-1.025.428-2.248,2.658-2.248a1.834,1.834,0,0,0,2-1.86,2.987,2.987,0,0,0-.639-2.3,3.648,3.648,0,0,0-2.852-1c-2.816,0-2.9,1.821-2.9,2.028a1.245,1.245,0,0,1-2.49,0c0-1.257.968-4.518,5.387-4.518A6.012,6.012,0,0,1,2319.541,2036.418Zm-4.725,11.367a1.557,1.557,0,1,0,1.1.458A1.576,1.576,0,0,0,2314.816,2047.785Z" transform="translate(1179.03 -1834.781)" fill="#001e50"/>
    </g>
  </g>
</svg>
