<svg xmlns="http://www.w3.org/2000/svg" width="120" height="119.142" viewBox="0 0 120 119.142"><g transform="translate(71.161 -327.699)"><path d="M-47.937,424.9l-.269-.269A52.077,52.077,0,0,1-63.33,391.177a52.06,52.06,0,0,1,10.591-35.228,55.889,55.889,0,0,1,4.6-5.228A52.16,52.16,0,0,1-11.161,335.4a52.212,52.212,0,0,1,37,15.326,52.61,52.61,0,0,1,4.578,5.228,52.168,52.168,0,0,1,10.613,35.228,52.215,52.215,0,0,1-15.146,33.456l-.247.247v10.209A60.258,60.258,0,0,0,41.12,417.183,59.776,59.776,0,0,0,48.839,387.7,59.83,59.83,0,0,0,31.27,345.268,59.792,59.792,0,0,0-11.161,327.7a59.83,59.83,0,0,0-42.431,17.569A59.83,59.83,0,0,0-71.161,387.7a59.777,59.777,0,0,0,7.719,29.484,60.7,60.7,0,0,0,15.5,17.928Z" fill="#78b2fe" fill-rule="evenodd"/><path d="M21.668,360.84c.4.4.83.83,1.234,1.279A41.937,41.937,0,0,1,34.008,391.6a42.219,42.219,0,0,1-5.385,19.79v11.175a48.634,48.634,0,0,0,11.8-29.439,48.437,48.437,0,0,0-10.9-33.231c-1.01-1.234-2.11-2.445-3.276-3.612a48.525,48.525,0,0,0-34.42-14.271,48.435,48.435,0,0,0-34.4,14.271c-1.19,1.167-2.266,2.378-3.3,3.612a48.548,48.548,0,0,0-10.905,33.231,48.48,48.48,0,0,0,11.825,29.439V411.416A42.174,42.174,0,0,1-50.36,391.58a42.086,42.086,0,0,1,11.107-29.461c.427-.449.83-.875,1.234-1.279A42.1,42.1,0,0,1-8.175,348.476,42.067,42.067,0,0,1,21.668,360.84Z" transform="translate(-2.985 -2.984)" fill="#3a6cc1" fill-rule="evenodd"/><path d="M27.2,413.828a38.682,38.682,0,0,0,5.767-17.951,38.358,38.358,0,0,0-7.853-25.983,37.914,37.914,0,0,0-3.344-3.815A38.464,38.464,0,0,0-5.517,354.77,38.374,38.374,0,0,0-32.78,366.079a35.467,35.467,0,0,0-3.366,3.815A38.373,38.373,0,0,0-44,395.9a38.882,38.882,0,0,0,5.789,17.928,5.025,5.025,0,0,1,2.535-.673h6.328a31.033,31.033,0,0,1-7.135-18.714,30.828,30.828,0,0,1,7.561-21.406,19.9,19.9,0,0,1,1.5-1.593,30.834,30.834,0,0,1,21.9-9.088A30.885,30.885,0,0,1,16.4,371.442c.516.515,1.01,1.031,1.481,1.593a30.825,30.825,0,0,1,7.562,21.406,30.9,30.9,0,0,1-7.135,18.714h6.35a5.089,5.089,0,0,1,2.535.673Z" transform="translate(-5.643 -5.642)" fill="#124a91" fill-rule="evenodd"/><path d="M20.826,410.982A27.773,27.773,0,0,0,24.91,393.1a27.818,27.818,0,0,0-7.943-16.515,27.636,27.636,0,0,0-19.633-8.123,27.584,27.584,0,0,0-19.611,8.123,27.691,27.691,0,0,0-7.9,16.021,27.721,27.721,0,0,0,3.5,17.5A28.24,28.24,0,0,0-23,415.088c.291.314.583.606.9.921H16.765a6.579,6.579,0,0,0,.56-.561,27.876,27.876,0,0,0,3.5-4.465ZM-4.507,387.107l-1.75-4.8a1.166,1.166,0,0,1,.718-1.5,1.239,1.239,0,0,1,.9.022h0L9.023,387.2a1.205,1.205,0,0,1,.583,1.593L3.234,402.455a1.186,1.186,0,0,1-2.221-.157l-1.706-4.667a20.7,20.7,0,0,0-7.023,4.42,16.137,16.137,0,0,0-4.218,7.382,1.189,1.189,0,0,1-1.459.83,1.178,1.178,0,0,1-.853-.965h0A23.348,23.348,0,0,1-12.7,395.814a19.633,19.633,0,0,1,8.19-8.706Z" transform="translate(-8.494 -8.496)" fill="#fff" fill-rule="evenodd"/><path d="M29.438,433.865a5.1,5.1,0,0,0-3.276-1.369H-34.376a5.04,5.04,0,0,0-3.478,1.369L-4.219,462.7Z" transform="translate(-6.942 -21.843)" fill="#e2bc79" fill-rule="evenodd"/><path d="M-37.854,459.431a58.514,58.514,0,0,0,16.2,7.831l8.122-6.91-24.323-21.137Z" transform="translate(-6.942 -23.243)" fill="#fff" fill-rule="evenodd"/><path d="M24.928,467.026a60.187,60.187,0,0,0,15.819-7.719V438.619L16.4,459.779Z" transform="translate(-18.251 -23.119)" fill="#fff" fill-rule="evenodd"/><path d="M14.919,474.543l-7.18-6.1-6.776,5.9-6.777-5.9-7.18,6.1a60.493,60.493,0,0,0,27.913,0Z" transform="translate(-12.124 -29.334)" fill="#e2bc79" fill-rule="evenodd"/></g></svg>